<svg width="17" height="13" viewBox="0 0 17 13" fill="none" xmlns="http://www.w3.org/2000/svg">
<path d="M8.5 3.42674V0.962409C8.49968 0.772097 8.44087 0.586134 8.33098 0.427956C8.22109 0.269778 8.06504 0.146463 7.8825 0.0735515C7.69996 0.000639722 7.49909 -0.0186063 7.3052 0.0182393C7.11132 0.0550849 6.9331 0.146373 6.793 0.2806L0.5 6.25895L6.793 12.2363C6.88565 12.3261 6.99581 12.3973 7.11715 12.4459C7.23848 12.4945 7.36859 12.5195 7.5 12.5195C7.63141 12.5195 7.76152 12.4945 7.88285 12.4459C8.00419 12.3973 8.11435 12.3261 8.207 12.2363C8.39455 12.0558 8.49994 11.8109 8.5 11.5555V9.15856C11.25 9.22405 14.255 9.70363 16.5 13V12.037C16.5 7.57538 13 3.90632 8.5 3.42674Z" fill="#343434"/>
</svg>
