<svg width="462" height="310" viewBox="0 0 462 310" fill="none" xmlns="http://www.w3.org/2000/svg">
<path d="M70.2076 297.09C59.6716 297.09 51.0996 288.518 51.0996 277.982V65.7398C51.0996 55.2038 59.6716 46.6318 70.2076 46.6318H391.794C402.33 46.6318 410.902 55.2038 410.902 65.7398V277.982C410.902 288.518 402.33 297.09 391.794 297.09H70.2076Z" fill="#FFC418"/>
<path d="M74.3255 290.71C66.3925 290.71 59.9385 284.256 59.9385 276.323V69.5149C59.9385 61.5819 66.3925 55.1279 74.3255 55.1279H387.676C395.609 55.1279 402.063 61.5819 402.063 69.5149V276.323C402.063 284.256 395.609 290.71 387.676 290.71H74.3255Z" stroke="#FF7300" stroke-width="2" stroke-linecap="round" stroke-linejoin="round" stroke-dasharray="12.03 12.03"/>
<path d="M253.226 105.08C252.028 103.606 235.931 88.1542 230.616 83.0612C230.808 82.7392 230.913 82.5462 230.913 82.5462C234.337 68.6282 218.099 69.5112 218.099 69.5112L224.727 76.5812L223.07 81.5522L217.105 83.0982L210.809 76.3602C211.14 92.4872 220.309 90.7202 224.064 89.5052C224.268 89.4392 224.469 89.3582 224.668 89.2672L248.587 113.586C248.587 113.586 251.349 115.906 254.331 112.813C257.313 109.719 254.662 106.847 253.226 105.08ZM251.349 112.591C250.312 112.591 249.471 111.602 249.471 110.382C249.471 109.162 250.312 108.173 251.349 108.173C252.386 108.173 253.227 109.162 253.227 110.382C253.226 111.602 252.386 112.591 251.349 112.591Z" fill="#F7B859"/>
<path d="M237.025 111.155V107.51H231.754C231.513 106.355 231.047 105.282 230.406 104.334L234.156 100.584L231.578 98.0057L227.794 101.79C226.852 101.183 225.792 100.739 224.652 100.51V95.1367H221.007V100.51C219.867 100.739 218.807 101.183 217.865 101.79L214.081 98.0057L211.503 100.584L215.253 104.334C214.612 105.281 214.146 106.355 213.905 107.51H208.634V111.155H213.9C214.139 112.313 214.604 113.388 215.245 114.338L211.502 118.081L214.08 120.659L217.851 116.888C218.796 117.499 219.86 117.945 221.005 118.175V123.528H224.65V118.175C225.795 117.945 226.859 117.499 227.804 116.888L231.575 120.659L234.153 118.081L230.411 114.339C231.052 113.389 231.517 112.314 231.756 111.156H237.025V111.155ZM222.831 113.254C220.787 113.254 219.131 111.498 219.131 109.333C219.131 107.167 220.788 105.412 222.831 105.412C224.875 105.412 226.531 107.168 226.531 109.333C226.531 111.498 224.875 113.254 222.831 113.254Z" fill="#F7B859"/>
<path d="M253.226 104.296C252.028 102.822 235.931 87.37 230.616 82.277C230.808 81.955 230.913 81.762 230.913 81.762C234.337 67.844 218.099 68.727 218.099 68.727L224.727 75.797L223.07 80.768L217.105 82.314L210.809 75.576C211.14 91.703 220.309 89.936 224.064 88.721C224.268 88.655 224.469 88.574 224.668 88.483L248.587 112.802C248.587 112.802 251.349 115.122 254.331 112.029C257.313 108.935 254.662 106.063 253.226 104.296ZM251.349 111.807C250.312 111.807 249.471 110.818 249.471 109.598C249.471 108.378 250.312 107.389 251.349 107.389C252.386 107.389 253.227 108.378 253.227 109.598C253.226 110.818 252.386 111.807 251.349 111.807Z" fill="#FEFEFE"/>
<path d="M237.025 110.371V106.726H231.754C231.513 105.571 231.047 104.498 230.406 103.55L234.156 99.7995L231.578 97.2215L227.794 101.006C226.852 100.399 225.792 99.9545 224.652 99.7255V94.3525H221.007V99.7255C219.867 99.9545 218.807 100.399 217.865 101.006L214.081 97.2215L211.503 99.7995L215.253 103.55C214.612 104.497 214.146 105.571 213.905 106.726H208.634V110.371H213.9C214.139 111.529 214.604 112.604 215.245 113.554L211.502 117.297L214.08 119.875L217.851 116.104C218.796 116.715 219.86 117.161 221.005 117.391V122.744H224.65V117.391C225.795 117.161 226.859 116.715 227.804 116.104L231.575 119.875L234.153 117.297L230.411 113.555C231.052 112.605 231.517 111.53 231.756 110.372L237.025 110.371ZM222.831 112.47C220.787 112.47 219.131 110.714 219.131 108.549C219.131 106.383 220.788 104.628 222.831 104.628C224.875 104.628 226.531 106.384 226.531 108.549C226.531 110.715 224.875 112.47 222.831 112.47Z" fill="#FEFEFE"/>
<path d="M168.241 132.587H172.909V158.109C172.909 160.744 172.288 163.096 171.046 165.167C169.816 167.224 168.078 168.849 165.832 170.041C163.586 171.221 160.951 171.81 157.927 171.81C154.904 171.81 152.269 171.221 150.023 170.041C147.777 168.849 146.033 167.224 144.79 165.167C143.561 163.096 142.946 160.744 142.946 158.109V132.587H147.614V157.732C147.614 159.614 148.028 161.289 148.856 162.757C149.684 164.213 150.863 165.361 152.394 166.202C153.937 167.03 155.782 167.444 157.927 167.444C160.073 167.444 161.918 167.03 163.461 166.202C165.004 165.361 166.184 164.213 166.999 162.757C167.827 161.289 168.241 159.614 168.241 157.732V132.587ZM212.795 132.587V171.133H208.278L187.274 140.869H186.898V171.133H182.23V132.587H186.747L207.827 162.927H208.203V132.587H212.795ZM234.03 171.133H222.135V132.587H234.557C238.296 132.587 241.496 133.359 244.156 134.902C246.816 136.433 248.855 138.635 250.273 141.509C251.691 144.369 252.4 147.795 252.4 151.785C252.4 155.8 251.684 159.257 250.254 162.155C248.824 165.041 246.741 167.262 244.005 168.818C241.27 170.361 237.945 171.133 234.03 171.133ZM226.803 166.992H233.729C236.916 166.992 239.557 166.377 241.653 165.148C243.748 163.918 245.31 162.168 246.339 159.897C247.368 157.626 247.883 154.922 247.883 151.785C247.883 148.673 247.374 145.994 246.358 143.748C245.342 141.49 243.823 139.758 241.803 138.554C239.783 137.337 237.267 136.728 234.256 136.728H226.803V166.992ZM260.229 171.133V132.587H283.492V136.728H264.897V149.752H282.287V153.893H264.897V166.992H283.793V171.133H260.229ZM291.905 171.133V132.587H304.929C307.94 132.587 310.412 133.102 312.345 134.131C314.277 135.147 315.707 136.546 316.636 138.328C317.564 140.109 318.028 142.136 318.028 144.407C318.028 146.678 317.564 148.692 316.636 150.449C315.707 152.205 314.283 153.585 312.363 154.589C310.444 155.58 307.991 156.076 305.004 156.076H294.465V151.86H304.854C306.912 151.86 308.568 151.559 309.823 150.957C311.09 150.354 312.006 149.501 312.57 148.397C313.148 147.28 313.436 145.95 313.436 144.407C313.436 142.864 313.148 141.515 312.57 140.36C311.993 139.206 311.071 138.315 309.804 137.688C308.536 137.048 306.861 136.728 304.778 136.728H296.573V171.133H291.905ZM310.048 153.817L319.534 171.133H314.114L304.778 153.817H310.048Z" fill="black"/>
<path d="M148.701 188.933H146.587C146.462 188.325 146.244 187.791 145.931 187.33C145.624 186.87 145.249 186.484 144.806 186.171C144.369 185.853 143.883 185.614 143.349 185.455C142.815 185.296 142.258 185.217 141.678 185.217C140.622 185.217 139.664 185.484 138.806 186.018C137.954 186.552 137.275 187.339 136.769 188.379C136.269 189.418 136.019 190.694 136.019 192.205C136.019 193.717 136.269 194.992 136.769 196.032C137.275 197.072 137.954 197.859 138.806 198.393C139.664 198.927 140.622 199.194 141.678 199.194C142.258 199.194 142.815 199.114 143.349 198.955C143.883 198.796 144.369 198.56 144.806 198.248C145.249 197.93 145.624 197.541 145.931 197.08C146.244 196.614 146.462 196.08 146.587 195.478H148.701C148.542 196.37 148.252 197.168 147.832 197.873C147.411 198.578 146.889 199.177 146.264 199.671C145.639 200.16 144.937 200.532 144.158 200.788C143.386 201.043 142.559 201.171 141.678 201.171C140.19 201.171 138.866 200.808 137.707 200.08C136.548 199.353 135.636 198.319 134.971 196.978C134.306 195.637 133.974 194.046 133.974 192.205C133.974 190.364 134.306 188.774 134.971 187.433C135.636 186.092 136.548 185.058 137.707 184.33C138.866 183.603 140.19 183.239 141.678 183.239C142.559 183.239 143.386 183.367 144.158 183.623C144.937 183.879 145.639 184.254 146.264 184.748C146.889 185.237 147.411 185.833 147.832 186.538C148.252 187.237 148.542 188.035 148.701 188.933ZM166.844 192.205C166.844 194.046 166.511 195.637 165.847 196.978C165.182 198.319 164.27 199.353 163.111 200.08C161.952 200.808 160.628 201.171 159.139 201.171C157.651 201.171 156.327 200.808 155.168 200.08C154.009 199.353 153.097 198.319 152.432 196.978C151.767 195.637 151.435 194.046 151.435 192.205C151.435 190.364 151.767 188.774 152.432 187.433C153.097 186.092 154.009 185.058 155.168 184.33C156.327 183.603 157.651 183.239 159.139 183.239C160.628 183.239 161.952 183.603 163.111 184.33C164.27 185.058 165.182 186.092 165.847 187.433C166.511 188.774 166.844 190.364 166.844 192.205ZM164.798 192.205C164.798 190.694 164.546 189.418 164.04 188.379C163.54 187.339 162.861 186.552 162.003 186.018C161.151 185.484 160.196 185.217 159.139 185.217C158.082 185.217 157.125 185.484 156.267 186.018C155.415 186.552 154.736 187.339 154.23 188.379C153.73 189.418 153.48 190.694 153.48 192.205C153.48 193.717 153.73 194.992 154.23 196.032C154.736 197.072 155.415 197.859 156.267 198.393C157.125 198.927 158.082 199.194 159.139 199.194C160.196 199.194 161.151 198.927 162.003 198.393C162.861 197.859 163.54 197.072 164.04 196.032C164.546 194.992 164.798 193.717 164.798 192.205ZM184.239 183.478V200.933H182.193L172.682 187.228H172.511V200.933H170.398V183.478H172.443L181.989 197.217H182.159V183.478H184.239ZM198.014 187.842C197.911 186.978 197.497 186.308 196.769 185.83C196.042 185.353 195.15 185.114 194.093 185.114C193.32 185.114 192.644 185.239 192.065 185.489C191.491 185.739 191.042 186.083 190.718 186.521C190.4 186.958 190.241 187.455 190.241 188.012C190.241 188.478 190.352 188.879 190.573 189.214C190.801 189.543 191.09 189.819 191.443 190.041C191.795 190.256 192.164 190.435 192.551 190.578C192.937 190.714 193.292 190.825 193.616 190.91L195.389 191.387C195.843 191.506 196.349 191.671 196.906 191.881C197.468 192.092 198.005 192.379 198.516 192.742C199.033 193.1 199.46 193.56 199.795 194.123C200.13 194.685 200.298 195.376 200.298 196.194C200.298 197.137 200.051 197.989 199.556 198.751C199.068 199.512 198.352 200.117 197.408 200.566C196.471 201.015 195.332 201.239 193.991 201.239C192.741 201.239 191.658 201.038 190.744 200.634C189.835 200.231 189.119 199.668 188.596 198.947C188.079 198.225 187.786 197.387 187.718 196.433H189.9C189.957 197.092 190.178 197.637 190.565 198.069C190.957 198.495 191.451 198.813 192.048 199.024C192.65 199.228 193.298 199.33 193.991 199.33C194.798 199.33 195.522 199.2 196.164 198.938C196.806 198.671 197.315 198.302 197.69 197.83C198.065 197.353 198.252 196.796 198.252 196.16C198.252 195.58 198.09 195.109 197.766 194.745C197.443 194.381 197.016 194.086 196.488 193.859C195.96 193.631 195.389 193.433 194.775 193.262L192.627 192.649C191.264 192.256 190.184 191.697 189.389 190.97C188.593 190.242 188.195 189.291 188.195 188.114C188.195 187.137 188.46 186.285 188.988 185.558C189.522 184.825 190.238 184.256 191.136 183.853C192.039 183.444 193.048 183.239 194.161 183.239C195.286 183.239 196.286 183.441 197.161 183.845C198.036 184.242 198.729 184.788 199.241 185.481C199.758 186.174 200.031 186.961 200.059 187.842H198.014ZM202.818 185.353V183.478H215.909V185.353H210.421V200.933H208.307V185.353H202.818ZM219.171 200.933V183.478H225.069C226.433 183.478 227.552 183.711 228.427 184.177C229.302 184.637 229.95 185.271 230.37 186.078C230.791 186.884 231.001 187.802 231.001 188.83C231.001 189.859 230.791 190.771 230.37 191.566C229.95 192.362 229.305 192.987 228.435 193.441C227.566 193.89 226.455 194.114 225.103 194.114H220.33V192.205H225.035C225.967 192.205 226.717 192.069 227.285 191.796C227.859 191.524 228.274 191.137 228.529 190.637C228.791 190.131 228.921 189.529 228.921 188.83C228.921 188.131 228.791 187.521 228.529 186.998C228.268 186.475 227.85 186.072 227.276 185.788C226.703 185.498 225.944 185.353 225.001 185.353H221.285V200.933H219.171ZM227.387 193.092L231.683 200.933H229.228L225.001 193.092H227.387ZM245.977 183.478H248.091V195.035C248.091 196.228 247.81 197.293 247.247 198.231C246.69 199.163 245.903 199.899 244.886 200.438C243.869 200.972 242.676 201.239 241.307 201.239C239.938 201.239 238.744 200.972 237.727 200.438C236.71 199.899 235.921 199.163 235.358 198.231C234.801 197.293 234.523 196.228 234.523 195.035V183.478H236.636V194.864C236.636 195.717 236.824 196.475 237.199 197.14C237.574 197.799 238.108 198.319 238.801 198.7C239.5 199.075 240.335 199.262 241.307 199.262C242.278 199.262 243.114 199.075 243.813 198.7C244.511 198.319 245.046 197.799 245.415 197.14C245.79 196.475 245.977 195.717 245.977 194.864V183.478ZM266.357 188.933H264.244C264.119 188.325 263.9 187.791 263.587 187.33C263.281 186.87 262.906 186.484 262.462 186.171C262.025 185.853 261.539 185.614 261.005 185.455C260.471 185.296 259.914 185.217 259.335 185.217C258.278 185.217 257.32 185.484 256.462 186.018C255.61 186.552 254.931 187.339 254.426 188.379C253.926 189.418 253.676 190.694 253.676 192.205C253.676 193.717 253.926 194.992 254.426 196.032C254.931 197.072 255.61 197.859 256.462 198.393C257.32 198.927 258.278 199.194 259.335 199.194C259.914 199.194 260.471 199.114 261.005 198.955C261.539 198.796 262.025 198.56 262.462 198.248C262.906 197.93 263.281 197.541 263.587 197.08C263.9 196.614 264.119 196.08 264.244 195.478H266.357C266.198 196.37 265.908 197.168 265.488 197.873C265.068 198.578 264.545 199.177 263.92 199.671C263.295 200.16 262.593 200.532 261.815 200.788C261.042 201.043 260.215 201.171 259.335 201.171C257.846 201.171 256.522 200.808 255.363 200.08C254.204 199.353 253.292 198.319 252.627 196.978C251.962 195.637 251.63 194.046 251.63 192.205C251.63 190.364 251.962 188.774 252.627 187.433C253.292 186.092 254.204 185.058 255.363 184.33C256.522 183.603 257.846 183.239 259.335 183.239C260.215 183.239 261.042 183.367 261.815 183.623C262.593 183.879 263.295 184.254 263.92 184.748C264.545 185.237 265.068 185.833 265.488 186.538C265.908 187.237 266.198 188.035 266.357 188.933ZM268.818 185.353V183.478H281.909V185.353H276.421V200.933H274.307V185.353H268.818ZM287.285 183.478V200.933H285.171V183.478H287.285ZM306.25 192.205C306.25 194.046 305.918 195.637 305.253 196.978C304.588 198.319 303.676 199.353 302.517 200.08C301.358 200.808 300.034 201.171 298.546 201.171C297.057 201.171 295.733 200.808 294.574 200.08C293.415 199.353 292.503 198.319 291.838 196.978C291.173 195.637 290.841 194.046 290.841 192.205C290.841 190.364 291.173 188.774 291.838 187.433C292.503 186.092 293.415 185.058 294.574 184.33C295.733 183.603 297.057 183.239 298.546 183.239C300.034 183.239 301.358 183.603 302.517 184.33C303.676 185.058 304.588 186.092 305.253 187.433C305.918 188.774 306.25 190.364 306.25 192.205ZM304.205 192.205C304.205 190.694 303.952 189.418 303.446 188.379C302.946 187.339 302.267 186.552 301.409 186.018C300.557 185.484 299.602 185.217 298.546 185.217C297.489 185.217 296.531 185.484 295.673 186.018C294.821 186.552 294.142 187.339 293.636 188.379C293.136 189.418 292.886 190.694 292.886 192.205C292.886 193.717 293.136 194.992 293.636 196.032C294.142 197.072 294.821 197.859 295.673 198.393C296.531 198.927 297.489 199.194 298.546 199.194C299.602 199.194 300.557 198.927 301.409 198.393C302.267 197.859 302.946 197.072 303.446 196.032C303.952 194.992 304.205 193.717 304.205 192.205ZM323.645 183.478V200.933H321.6L312.088 187.228H311.918V200.933H309.804V183.478H311.85L321.395 197.217H321.565V183.478H323.645Z" fill="#FEFEFE"/>
<path d="M161.737 236.191C161.053 236.191 160.507 235.951 160.099 235.471C159.703 234.979 159.505 234.361 159.505 233.617C159.505 232.873 159.553 231.913 159.649 230.737C159.745 229.561 159.793 228.475 159.793 227.479C159.793 226.483 159.697 225.751 159.505 225.283C159.421 225.103 159.169 224.761 158.749 224.257L158.515 223.987L158.587 223.627C159.643 223.351 161.083 223.213 162.907 223.213C163.207 223.561 163.357 224.245 163.357 225.265C163.357 226.285 163.285 227.509 163.141 228.937C162.997 230.353 162.925 231.385 162.925 232.033C162.925 232.681 162.973 233.107 163.069 233.311C163.165 233.515 163.321 233.617 163.537 233.617C163.753 233.617 164.035 233.503 164.383 233.275C164.731 233.035 165.007 232.783 165.211 232.519C165.211 232.447 165.295 231.673 165.463 230.197C165.643 228.709 165.733 227.479 165.733 226.507C165.733 225.535 165.619 224.677 165.391 223.933C166.435 223.453 167.689 223.207 169.153 223.195C169.357 223.627 169.459 224.287 169.459 225.175C169.459 226.063 169.303 227.437 168.991 229.297C168.691 231.157 168.541 232.255 168.541 232.591C168.541 233.263 168.709 233.599 169.045 233.599C169.393 233.599 169.831 233.299 170.359 232.699C170.899 232.099 171.385 231.331 171.817 230.395C172.261 229.447 172.507 228.559 172.555 227.731L170.521 226.363C170.629 225.283 171.013 224.371 171.673 223.627C171.817 223.471 171.985 223.333 172.177 223.213C173.041 223.213 173.695 223.441 174.139 223.897C174.583 224.353 174.805 224.857 174.805 225.409C174.805 226.393 174.583 227.515 174.139 228.775C173.695 230.023 173.125 231.193 172.429 232.285C171.745 233.377 170.929 234.301 169.981 235.057C169.045 235.813 168.127 236.191 167.227 236.191C166.747 236.191 166.321 236.035 165.949 235.723C165.577 235.411 165.325 234.937 165.193 234.301C163.993 235.561 162.841 236.191 161.737 236.191ZM174.408 232.717C174.408 231.229 174.858 230.071 175.758 229.243C176.67 228.415 177.792 228.001 179.124 228.001C180.048 228.001 180.786 228.205 181.338 228.613C181.902 229.009 182.184 229.543 182.184 230.215C182.184 230.707 182.034 231.145 181.734 231.529C181.434 231.913 181.068 232.207 180.636 232.411C179.724 232.819 178.932 233.065 178.26 233.149L177.81 233.203C177.942 233.995 178.338 234.391 178.998 234.391C179.286 234.391 179.604 234.331 179.952 234.211C180.3 234.079 180.576 233.947 180.78 233.815L181.086 233.635L181.662 234.409C181.662 234.409 181.596 234.475 181.464 234.607C181.392 234.679 181.218 234.823 180.942 235.039C180.678 235.243 180.396 235.423 180.096 235.579C179.808 235.735 179.436 235.873 178.98 235.993C178.524 236.125 178.068 236.191 177.612 236.191C176.592 236.191 175.8 235.897 175.236 235.309C174.684 234.709 174.408 233.845 174.408 232.717ZM177.738 232.015C178.086 231.967 178.434 231.685 178.782 231.169C179.13 230.641 179.304 230.203 179.304 229.855C179.304 229.495 179.202 229.315 178.998 229.315C178.698 229.315 178.422 229.549 178.17 230.017C177.918 230.485 177.774 231.151 177.738 232.015ZM194.815 228.685C194.563 229.465 194.347 230.395 194.167 231.475C193.987 232.543 193.897 233.293 193.897 233.725C193.897 234.145 193.963 234.355 194.095 234.355L194.995 234.103L195.319 235.003C194.935 235.303 194.443 235.579 193.843 235.831C193.255 236.071 192.733 236.191 192.277 236.191C191.497 236.191 191.005 235.855 190.801 235.183C189.853 235.855 189.013 236.191 188.281 236.191C187.561 236.191 187.003 235.927 186.607 235.399C186.211 234.871 186.013 234.115 186.013 233.131C186.013 231.775 186.361 230.581 187.057 229.549C187.753 228.517 188.671 228.001 189.811 228.001C190.435 228.001 191.071 228.175 191.719 228.523C191.815 228.307 191.893 228.151 191.953 228.055C192.817 228.055 193.771 228.265 194.815 228.685ZM189.397 232.915C189.397 233.515 189.439 233.893 189.523 234.049C189.607 234.205 189.763 234.283 189.991 234.283C190.219 234.283 190.441 234.193 190.657 234.013C190.705 232.621 190.933 231.163 191.341 229.639C191.161 229.531 190.951 229.477 190.711 229.477C190.483 229.477 190.273 229.609 190.081 229.873C189.901 230.137 189.763 230.467 189.667 230.863C189.487 231.619 189.397 232.303 189.397 232.915ZM195.936 236.083H195.792C195.756 235.915 195.738 235.657 195.738 235.309C195.738 234.949 195.882 234.031 196.17 232.555C196.47 231.067 196.62 230.227 196.62 230.035C196.62 229.831 196.566 229.627 196.458 229.423C196.35 229.207 196.242 229.045 196.134 228.937L195.972 228.775L196.008 228.505C196.728 228.277 197.922 228.163 199.59 228.163C199.746 228.463 199.842 228.817 199.878 229.225C200.61 228.409 201.258 228.001 201.822 228.001C202.554 228.001 202.956 228.619 203.028 229.855C203.004 229.879 202.974 229.921 202.938 229.981C202.902 230.029 202.818 230.119 202.686 230.251C202.554 230.383 202.416 230.503 202.272 230.611C201.864 230.887 201.432 231.049 200.976 231.097C200.964 231.097 200.88 230.965 200.724 230.701C200.58 230.437 200.454 230.305 200.346 230.305C200.25 230.305 200.064 230.413 199.788 230.629C199.752 230.845 199.68 231.211 199.572 231.727C199.476 232.243 199.398 232.669 199.338 233.005C199.158 233.893 199.068 234.637 199.068 235.237L199.086 235.777C198.558 235.981 197.508 236.083 195.936 236.083ZM202.463 232.717C202.463 231.229 202.913 230.071 203.813 229.243C204.725 228.415 205.847 228.001 207.179 228.001C208.103 228.001 208.841 228.205 209.393 228.613C209.957 229.009 210.239 229.543 210.239 230.215C210.239 230.707 210.089 231.145 209.789 231.529C209.489 231.913 209.123 232.207 208.691 232.411C207.779 232.819 206.987 233.065 206.315 233.149L205.865 233.203C205.997 233.995 206.393 234.391 207.053 234.391C207.341 234.391 207.659 234.331 208.007 234.211C208.355 234.079 208.631 233.947 208.835 233.815L209.141 233.635L209.717 234.409C209.717 234.409 209.651 234.475 209.519 234.607C209.447 234.679 209.273 234.823 208.997 235.039C208.733 235.243 208.451 235.423 208.151 235.579C207.863 235.735 207.491 235.873 207.035 235.993C206.579 236.125 206.123 236.191 205.667 236.191C204.647 236.191 203.855 235.897 203.291 235.309C202.739 234.709 202.463 233.845 202.463 232.717ZM205.793 232.015C206.141 231.967 206.489 231.685 206.837 231.169C207.185 230.641 207.359 230.203 207.359 229.855C207.359 229.495 207.257 229.315 207.053 229.315C206.753 229.315 206.477 229.549 206.225 230.017C205.973 230.485 205.829 231.151 205.793 232.015ZM218.622 229.207C218.25 229.207 217.932 229.537 217.668 230.197C217.404 230.857 217.272 231.523 217.272 232.195C217.272 233.671 217.698 234.409 218.55 234.409C219.09 234.409 219.702 234.151 220.386 233.635L220.962 234.427C220.458 234.979 219.852 235.411 219.144 235.723C218.448 236.035 217.752 236.191 217.056 236.191C216.12 236.191 215.358 235.909 214.77 235.345C214.194 234.769 213.906 233.905 213.906 232.753C213.906 231.361 214.332 230.221 215.184 229.333C216.048 228.445 217.176 228.001 218.568 228.001C219.468 228.001 220.176 228.187 220.692 228.559C221.208 228.919 221.466 229.381 221.466 229.945C221.466 230.497 221.298 230.977 220.962 231.385C220.566 231.385 220.134 231.313 219.666 231.169C219.21 231.013 218.844 230.821 218.568 230.593L218.838 229.243C218.766 229.219 218.694 229.207 218.622 229.207ZM224.559 236.191C223.623 236.191 222.885 235.897 222.345 235.309C221.805 234.709 221.535 233.869 221.535 232.789C221.535 231.469 221.925 230.353 222.705 229.441C223.485 228.517 224.511 228.055 225.783 228.055L226.593 228.127C226.881 228.043 227.151 228.001 227.403 228.001C228.003 228.001 228.429 228.205 228.681 228.613C228.945 229.021 229.095 229.603 229.131 230.359C229.635 230.335 230.115 230.257 230.571 230.125L230.823 230.053C230.907 230.137 230.967 230.389 231.003 230.809L231.021 231.007C230.481 231.283 229.821 231.499 229.041 231.655C228.777 232.927 228.255 234.001 227.475 234.877C226.695 235.753 225.723 236.191 224.559 236.191ZM224.919 232.717C224.919 233.833 225.201 234.391 225.765 234.391C226.161 234.391 226.563 234.139 226.971 233.635C227.391 233.131 227.679 232.519 227.835 231.799C226.611 231.799 225.999 231.211 225.999 230.035C225.999 229.831 226.017 229.621 226.053 229.405C225.933 229.405 225.843 229.423 225.783 229.459C225.579 229.675 225.381 230.113 225.189 230.773C225.009 231.421 224.919 232.069 224.919 232.717ZM230.288 236.083H229.838C229.838 235.231 230 234.043 230.324 232.519C230.66 230.983 230.828 230.131 230.828 229.963C230.828 229.795 230.774 229.609 230.666 229.405C230.558 229.201 230.45 229.045 230.342 228.937L230.18 228.775L230.216 228.505C230.912 228.277 232.142 228.163 233.906 228.163C234.038 228.439 234.128 228.733 234.176 229.045C235.22 228.361 236.102 228.019 236.822 228.019C237.206 228.019 237.53 228.121 237.794 228.325C238.07 228.529 238.262 228.799 238.37 229.135C239.366 228.391 240.278 228.019 241.106 228.019C241.646 228.019 242.066 228.187 242.366 228.523C242.678 228.847 242.834 229.243 242.834 229.711C242.834 230.167 242.702 230.911 242.438 231.943C242.174 232.975 242.042 233.641 242.042 233.941C242.042 234.229 242.09 234.373 242.186 234.373L243.122 234.139L243.446 235.039C243.086 235.327 242.588 235.591 241.952 235.831C241.328 236.071 240.764 236.191 240.26 236.191C239.228 236.191 238.712 235.669 238.712 234.625C238.712 234.181 238.838 233.425 239.09 232.357C239.342 231.289 239.468 230.641 239.468 230.413C239.468 230.173 239.378 230.053 239.198 230.053C238.946 230.053 238.676 230.155 238.388 230.359C238.352 230.539 238.256 230.971 238.1 231.655C237.764 233.191 237.596 234.553 237.596 235.741C237.044 235.945 235.97 236.047 234.374 236.047C234.338 235.915 234.32 235.603 234.32 235.111C234.32 234.619 234.452 233.749 234.716 232.501C234.98 231.253 235.112 230.533 235.112 230.341C235.112 230.149 235.028 230.053 234.86 230.053C234.656 230.053 234.392 230.149 234.068 230.341C234.032 230.545 233.918 231.067 233.726 231.907C233.318 233.671 233.114 234.955 233.114 235.759C232.55 235.975 231.608 236.083 230.288 236.083ZM248.271 229.225C248.271 229.753 248.121 230.575 247.821 231.691C247.521 232.795 247.371 233.515 247.371 233.851C247.371 234.187 247.437 234.355 247.569 234.355C247.701 234.355 247.941 234.295 248.289 234.175L248.451 234.103L248.775 235.003C248.367 235.315 247.857 235.591 247.245 235.831C246.645 236.071 246.099 236.191 245.607 236.191C245.115 236.191 244.725 236.053 244.437 235.777C244.161 235.501 244.023 235.105 244.023 234.589C244.023 234.061 244.167 233.263 244.455 232.195C244.755 231.115 244.905 230.431 244.905 230.143C244.905 229.699 244.749 229.279 244.437 228.883L244.293 228.685L244.347 228.379C244.971 228.187 246.183 228.091 247.983 228.091C248.175 228.307 248.271 228.685 248.271 229.225ZM246.921 226.687C246.381 226.687 245.955 226.543 245.643 226.255C245.343 225.967 245.193 225.601 245.193 225.157C245.193 224.701 245.379 224.323 245.751 224.023C246.135 223.711 246.597 223.555 247.137 223.555C247.677 223.555 248.097 223.681 248.397 223.933C248.697 224.185 248.847 224.539 248.847 224.995C248.847 225.451 248.661 225.847 248.289 226.183C247.929 226.519 247.473 226.687 246.921 226.687ZM249.761 236.083H249.455C249.455 235.339 249.623 234.211 249.959 232.699C250.307 231.187 250.481 230.317 250.481 230.089C250.481 229.861 250.427 229.639 250.319 229.423C250.211 229.207 250.103 229.045 249.995 228.937L249.833 228.775L249.869 228.505C250.577 228.277 251.813 228.163 253.577 228.163C253.697 228.439 253.781 228.727 253.829 229.027C254.921 228.355 255.839 228.019 256.583 228.019C257.087 228.019 257.483 228.187 257.771 228.523C258.059 228.847 258.203 229.243 258.203 229.711C258.203 230.167 258.071 230.905 257.807 231.925C257.543 232.945 257.411 233.611 257.411 233.923C257.411 234.223 257.453 234.373 257.537 234.373L258.491 234.121L258.815 235.021C258.431 235.309 257.927 235.579 257.303 235.831C256.691 236.071 256.127 236.191 255.611 236.191C254.591 236.191 254.081 235.663 254.081 234.607C254.081 234.151 254.207 233.407 254.459 232.375C254.711 231.343 254.837 230.701 254.837 230.449C254.837 230.185 254.753 230.053 254.585 230.053C254.369 230.053 254.081 230.173 253.721 230.413C253.673 230.629 253.553 231.151 253.361 231.979C252.977 233.719 252.785 234.973 252.785 235.741C252.197 235.969 251.189 236.083 249.761 236.083ZM263.85 235.201C263.01 235.657 262.26 235.885 261.6 235.885C260.952 235.885 260.406 235.627 259.962 235.111C259.53 234.583 259.314 233.803 259.314 232.771C259.314 231.391 259.686 230.251 260.43 229.351C261.186 228.451 262.086 228.001 263.13 228.001C263.634 228.001 264.204 228.139 264.84 228.415C265.584 228.187 266.43 228.073 267.378 228.073H267.684C267.744 228.193 267.774 228.463 267.774 228.883C267.774 229.291 267.696 230.101 267.54 231.313C267.396 232.525 267.234 233.539 267.054 234.355C266.67 236.095 266.07 237.469 265.254 238.477C264.45 239.497 263.436 240.007 262.212 240.007C261.612 240.007 261.12 239.875 260.736 239.611C260.364 239.347 260.178 239.011 260.178 238.603C260.178 238.195 260.274 237.853 260.466 237.577C260.67 237.313 260.958 237.091 261.33 236.911C261.966 236.599 262.746 236.341 263.67 236.137L263.85 235.201ZM263.958 229.459C263.538 229.459 263.214 229.819 262.986 230.539C262.77 231.259 262.662 232.039 262.662 232.879C262.662 233.719 262.86 234.139 263.256 234.139C263.424 234.139 263.67 234.055 263.994 233.887C264.09 232.915 264.246 231.475 264.462 229.567C264.282 229.495 264.114 229.459 263.958 229.459ZM261.906 238.675C262.134 238.675 262.392 238.561 262.68 238.333C262.98 238.105 263.226 237.733 263.418 237.217C262.11 237.445 261.456 237.793 261.456 238.261C261.48 238.537 261.63 238.675 261.906 238.675ZM278.16 233.545C278.16 234.289 277.812 234.919 277.116 235.435C276.432 235.939 275.628 236.191 274.704 236.191C273.78 236.191 273.018 236.035 272.418 235.723C271.83 235.411 271.536 235.117 271.536 234.841C271.536 234.553 271.716 234.193 272.076 233.761C272.448 233.317 272.826 233.059 273.21 232.987C273.762 233.287 274.26 233.953 274.704 234.985C275.052 234.985 275.226 234.871 275.226 234.643C275.226 234.475 275.178 234.319 275.082 234.175C274.986 234.031 274.914 233.917 274.866 233.833C274.818 233.749 274.734 233.635 274.614 233.491C274.494 233.335 274.404 233.221 274.344 233.149C274.044 232.789 273.774 232.459 273.534 232.159C272.958 231.439 272.67 230.809 272.67 230.269C272.67 229.717 272.844 229.267 273.192 228.919C273.792 228.307 274.674 228.001 275.838 228.001C276.57 228.001 277.152 228.145 277.584 228.433C278.016 228.709 278.232 229.129 278.232 229.693C278.232 230.245 277.902 230.881 277.242 231.601C277.854 232.309 278.16 232.957 278.16 233.545ZM276.954 230.251C277.098 230.023 277.17 229.819 277.17 229.639C277.17 229.459 277.092 229.321 276.936 229.225C276.78 229.129 276.594 229.081 276.378 229.081C276.162 229.081 275.994 229.135 275.874 229.243C275.766 229.339 275.712 229.471 275.712 229.639C275.712 229.807 275.97 230.179 276.486 230.755C276.654 230.635 276.81 230.467 276.954 230.251ZM281.846 236.191C280.91 236.191 280.172 235.897 279.632 235.309C279.092 234.709 278.822 233.869 278.822 232.789C278.822 231.469 279.212 230.353 279.992 229.441C280.772 228.517 281.798 228.055 283.07 228.055L283.88 228.127C284.168 228.043 284.438 228.001 284.69 228.001C285.29 228.001 285.716 228.205 285.968 228.613C286.232 229.021 286.382 229.603 286.418 230.359C286.922 230.335 287.402 230.257 287.858 230.125L288.11 230.053C288.194 230.137 288.254 230.389 288.29 230.809L288.308 231.007C287.768 231.283 287.108 231.499 286.328 231.655C286.064 232.927 285.542 234.001 284.762 234.877C283.982 235.753 283.01 236.191 281.846 236.191ZM282.206 232.717C282.206 233.833 282.488 234.391 283.052 234.391C283.448 234.391 283.85 234.139 284.258 233.635C284.678 233.131 284.966 232.519 285.122 231.799C283.898 231.799 283.286 231.211 283.286 230.035C283.286 229.831 283.304 229.621 283.34 229.405C283.22 229.405 283.13 229.423 283.07 229.459C282.866 229.675 282.668 230.113 282.476 230.773C282.296 231.421 282.206 232.069 282.206 232.717ZM289.879 236.191C288.943 236.191 288.205 235.897 287.665 235.309C287.125 234.709 286.855 233.869 286.855 232.789C286.855 231.469 287.245 230.353 288.025 229.441C288.805 228.517 289.831 228.055 291.103 228.055L291.913 228.127C292.201 228.043 292.471 228.001 292.723 228.001C293.323 228.001 293.749 228.205 294.001 228.613C294.265 229.021 294.415 229.603 294.451 230.359C294.955 230.335 295.435 230.257 295.891 230.125L296.143 230.053C296.227 230.137 296.287 230.389 296.323 230.809L296.341 231.007C295.801 231.283 295.141 231.499 294.361 231.655C294.097 232.927 293.575 234.001 292.795 234.877C292.015 235.753 291.043 236.191 289.879 236.191ZM290.239 232.717C290.239 233.833 290.521 234.391 291.085 234.391C291.481 234.391 291.883 234.139 292.291 233.635C292.711 233.131 292.999 232.519 293.155 231.799C291.931 231.799 291.319 231.211 291.319 230.035C291.319 229.831 291.337 229.621 291.373 229.405C291.253 229.405 291.163 229.423 291.103 229.459C290.899 229.675 290.701 230.113 290.509 230.773C290.329 231.421 290.239 232.069 290.239 232.717ZM295.464 236.083H295.158C295.158 235.339 295.326 234.211 295.662 232.699C296.01 231.187 296.184 230.317 296.184 230.089C296.184 229.861 296.13 229.639 296.022 229.423C295.914 229.207 295.806 229.045 295.698 228.937L295.536 228.775L295.572 228.505C296.28 228.277 297.516 228.163 299.28 228.163C299.4 228.439 299.484 228.727 299.532 229.027C300.624 228.355 301.542 228.019 302.286 228.019C302.79 228.019 303.186 228.187 303.474 228.523C303.762 228.847 303.906 229.243 303.906 229.711C303.906 230.167 303.774 230.905 303.51 231.925C303.246 232.945 303.114 233.611 303.114 233.923C303.114 234.223 303.156 234.373 303.24 234.373L304.194 234.121L304.518 235.021C304.134 235.309 303.63 235.579 303.006 235.831C302.394 236.071 301.83 236.191 301.314 236.191C300.294 236.191 299.784 235.663 299.784 234.607C299.784 234.151 299.91 233.407 300.162 232.375C300.414 231.343 300.54 230.701 300.54 230.449C300.54 230.185 300.456 230.053 300.288 230.053C300.072 230.053 299.784 230.173 299.424 230.413C299.376 230.629 299.256 231.151 299.064 231.979C298.68 233.719 298.488 234.973 298.488 235.741C297.9 235.969 296.892 236.083 295.464 236.083Z" fill="#F29200"/>
<path d="M29.1123 113.584L128.276 37.0306C128.276 37.0306 79.2193 -16.2294 38.3643 22.5426C-2.49067 61.3146 29.1123 113.584 29.1123 113.584Z" fill="#E94F1D"/>
<mask id="mask0_271_76" style="mask-type:luminance" maskUnits="userSpaceOnUse" x="17" y="8" width="112" height="106">
<path d="M29.1123 113.584L128.276 37.0306C128.276 37.0306 79.2193 -16.2294 38.3643 22.5426C-2.49067 61.3146 29.1123 113.584 29.1123 113.584Z" fill="white"/>
</mask>
<g mask="url(#mask0_271_76)">
<path opacity="0.2" d="M23.9927 123.589L54.1187 95.7548C55.2437 94.7158 55.5777 93.0748 54.9407 91.6828C50.9917 83.0648 38.3067 52.5088 50.0747 38.7998C63.5747 23.0728 83.6347 17.1188 116.804 34.1788C118.057 34.8238 119.57 34.6868 120.669 33.8048L133.302 23.6698C135.206 22.1428 135.036 19.1998 132.97 17.9008C116.942 7.82484 58.2237 -24.5872 27.0777 19.2688C-9.2163 70.3738 23.9927 123.589 23.9927 123.589Z" fill="#F8C16E"/>
</g>
<path opacity="0.2" d="M32.4013 85.5954C33.4993 89.6174 27.9833 91.8754 25.8933 88.2684C20.8263 79.5224 17.0843 67.8294 21.0443 54.8814C22.6203 49.7264 24.9113 45.6254 27.5923 42.3644C30.4653 38.8694 35.7323 43.0174 33.1623 46.7404C30.7133 50.2874 29.0423 54.4454 28.8343 59.2604C28.4483 68.1664 30.2303 77.6484 32.4013 85.5954Z" fill="#FEFEFE"/>
<path d="M82.0821 68.3569L78.4271 71.6499C75.3961 74.3809 70.6811 74.1359 67.9501 71.1049L26.5371 25.1459C23.8061 22.1149 24.0511 17.3999 27.0821 14.6689L30.7371 11.3759C33.7681 8.64494 38.4831 8.88993 41.2141 11.9209L82.6271 57.8799C85.3581 60.9109 85.1131 65.6259 82.0821 68.3569Z" fill="#EF3B24"/>
<mask id="mask1_271_76" style="mask-type:luminance" maskUnits="userSpaceOnUse" x="24" y="9" width="61" height="65">
<path d="M82.0821 68.3569L78.4271 71.6499C75.3961 74.3809 70.6811 74.1359 67.9501 71.1049L26.5371 25.1459C23.8061 22.1149 24.0511 17.3999 27.0821 14.6689L30.7371 11.3759C33.7681 8.64494 38.4831 8.88993 41.2141 11.9209L82.6271 57.8799C85.3581 60.9109 85.1131 65.6259 82.0821 68.3569Z" fill="white"/>
</mask>
<g mask="url(#mask1_271_76)">
<path d="M78.0962 58.5049L74.4412 61.7979C71.4102 64.5289 66.6952 64.2839 63.9642 61.2529L33.9062 27.8959C31.1752 24.8649 31.4202 20.1499 34.4512 17.4189L38.1062 14.1259C41.1372 11.3949 45.8522 11.6399 48.5832 14.6709L78.6412 48.0279C81.3732 51.0589 81.1272 55.7739 78.0962 58.5049Z" fill="#F8C16E"/>
</g>
<path d="M82.0821 68.3569L78.4271 71.6499C75.3961 74.3809 70.6811 74.1359 67.9501 71.1049L26.5371 25.1459C23.8061 22.1149 24.0511 17.3999 27.0821 14.6689L30.7371 11.3759C33.7681 8.64494 38.4831 8.88993 41.2141 11.9209L82.6271 57.8799C85.3581 60.9109 85.1131 65.6259 82.0821 68.3569Z" fill="#F8C16E"/>
<mask id="mask2_271_76" style="mask-type:luminance" maskUnits="userSpaceOnUse" x="24" y="9" width="61" height="65">
<path d="M82.0821 68.3569L78.4271 71.6499C75.3961 74.3809 70.6811 74.1359 67.9501 71.1049L26.5371 25.1459C23.8061 22.1149 24.0511 17.3999 27.0821 14.6689L30.7371 11.3759C33.7681 8.64494 38.4831 8.88993 41.2141 11.9209L82.6271 57.8799C85.3581 60.9109 85.1131 65.6259 82.0821 68.3569Z" fill="white"/>
</mask>
<g mask="url(#mask2_271_76)">
<path opacity="0.15" d="M78.0962 58.5049L74.4412 61.7979C71.4102 64.5289 66.6952 64.2839 63.9642 61.2529L33.9062 27.8959C31.1752 24.8649 31.4202 20.1499 34.4512 17.4189L38.1062 14.1259C41.1372 11.3949 45.8522 11.6399 48.5832 14.6709L78.6412 48.0279C81.3732 51.0589 81.1272 55.7739 78.0962 58.5049Z" fill="#F2C726"/>
</g>
<path d="M85.4761 72.1239L81.8211 75.4169C78.7901 78.1479 74.0751 77.9029 71.3441 74.8719L26.5371 25.1459C23.8061 22.1149 24.0511 17.3999 27.0821 14.6689L30.7371 11.3759C33.7681 8.64494 38.4831 8.88993 41.2141 11.9209L86.0211 61.6469C88.7521 64.6779 88.5071 69.3929 85.4761 72.1239Z" fill="#FF9640"/>
<mask id="mask3_271_76" style="mask-type:luminance" maskUnits="userSpaceOnUse" x="24" y="9" width="64" height="69">
<path d="M85.4761 72.1239L81.8211 75.4169C78.7901 78.1479 74.0751 77.9029 71.3441 74.8719L26.5371 25.1459C23.8061 22.1149 24.0511 17.3999 27.0821 14.6689L30.7371 11.3759C33.7681 8.64494 38.4831 8.88993 41.2141 11.9209L86.0211 61.6469C88.7521 64.6779 88.5071 69.3929 85.4761 72.1239Z" fill="white"/>
</mask>
<g mask="url(#mask3_271_76)">
<path opacity="0.15" d="M81.0488 61.7807L77.3938 65.0737C74.3628 67.8047 69.6478 67.5597 66.9168 64.5287L34.2158 28.2377C31.4848 25.2067 31.7298 20.4917 34.7608 17.7607L38.4158 14.4677C41.4468 11.7367 46.1618 11.9817 48.8928 15.0127L81.5938 51.3037C84.3248 54.3357 84.0798 59.0497 81.0488 61.7807Z" fill="#FEFEFE"/>
</g>
<path d="M111.923 53.0346L109.15 55.5326C106.851 57.6046 103.274 57.4186 101.202 55.1186L62.3435 11.9946C60.2715 9.69561 60.4575 6.11861 62.7575 4.04661L65.5305 1.54861C67.8295 -0.523385 71.4065 -0.337391 73.4785 1.96261L112.337 45.0866C114.408 47.3856 114.222 50.9626 111.923 53.0346Z" fill="#FF9640"/>
<mask id="mask4_271_76" style="mask-type:luminance" maskUnits="userSpaceOnUse" x="60" y="0" width="54" height="57">
<path d="M111.923 53.0346L109.15 55.5326C106.851 57.6046 103.274 57.4186 101.202 55.1186L62.3435 11.9946C60.2715 9.69561 60.4575 6.11861 62.7575 4.04661L65.5305 1.54861C67.8295 -0.523385 71.4065 -0.337391 73.4785 1.96261L112.337 45.0866C114.408 47.3856 114.222 50.9626 111.923 53.0346Z" fill="white"/>
</mask>
<g mask="url(#mask4_271_76)">
<path opacity="0.15" d="M107.929 44.4845L105.156 46.9825C102.857 49.0545 99.2801 48.8685 97.2081 46.5685L68.6101 14.8315C66.5381 12.5325 66.7241 8.95553 69.0241 6.88353L71.7971 4.38553C74.0961 2.31353 77.6731 2.49953 79.7451 4.79953L108.343 36.5365C110.415 38.8365 110.229 42.4135 107.929 44.4845Z" fill="#FEFEFE"/>
</g>
<path d="M60.2051 94.5182L57.4321 97.0162C55.1331 99.0882 51.5561 98.9022 49.4841 96.6022L12.9851 56.0972C10.9131 53.7982 11.0991 50.2212 13.3991 48.1492L16.1721 45.6512C18.4711 43.5792 22.0481 43.7652 24.1201 46.0652L60.6191 86.5702C62.6901 88.8692 62.5041 92.4462 60.2051 94.5182Z" fill="#FF9640"/>
<mask id="mask5_271_76" style="mask-type:luminance" maskUnits="userSpaceOnUse" x="11" y="44" width="52" height="55">
<path d="M60.2051 94.5182L57.4321 97.0162C55.1331 99.0882 51.5561 98.9022 49.4841 96.6022L12.9851 56.0972C10.9131 53.7982 11.0991 50.2212 13.3991 48.1492L16.1721 45.6512C18.4711 43.5792 22.0481 43.7652 24.1201 46.0652L60.6191 86.5702C62.6901 88.8692 62.5041 92.4462 60.2051 94.5182Z" fill="white"/>
</mask>
<g mask="url(#mask5_271_76)">
<path opacity="0.15" d="M56.5199 86.3088L53.7469 88.8068C51.4479 90.8788 47.8709 90.6928 45.7989 88.3928L19.0379 58.6948C16.9659 56.3958 17.1519 52.8188 19.4519 50.7468L22.2249 48.2488C24.5239 46.1768 28.1009 46.3628 30.1729 48.6628L56.9339 78.3608C59.0049 80.6608 58.8189 84.2368 56.5199 86.3088Z" fill="#FEFEFE"/>
</g>
<path d="M27.1543 126.127L24.8613 123.182C22.9593 120.74 23.4013 117.186 25.8433 115.284L130.677 33.6386C133.119 31.7366 136.673 32.1786 138.575 34.6206L140.868 37.5656C142.77 40.0076 142.328 43.5616 139.886 45.4636L35.0513 127.109C32.6093 129.011 29.0553 128.569 27.1543 126.127Z" fill="#FF9640"/>
<mask id="mask6_271_76" style="mask-type:luminance" maskUnits="userSpaceOnUse" x="23" y="32" width="120" height="97">
<path d="M27.1543 126.127L24.8613 123.182C22.9593 120.74 23.4013 117.186 25.8433 115.284L130.677 33.6386C133.119 31.7366 136.673 32.1786 138.575 34.6206L140.868 37.5656C142.77 40.0076 142.328 43.5616 139.886 45.4636L35.0513 127.109C32.6093 129.011 29.0553 128.569 27.1543 126.127Z" fill="white"/>
</mask>
<g mask="url(#mask6_271_76)">
<path opacity="0.2" d="M46.2724 119.388L43.9794 116.443C42.0774 114.001 42.5194 110.447 44.9614 108.545L124.646 46.4863C127.088 44.5843 130.642 45.0263 132.544 47.4683L134.837 50.4133C136.739 52.8553 136.297 56.4093 133.855 58.3113L54.1704 120.37C51.7284 122.272 48.1744 121.83 46.2724 119.388Z" fill="#F2C726"/>
</g>
<path d="M13.8672 295.053H89.2132L55.4672 206.326H44.4132L13.8672 295.053Z" fill="#E94F1D"/>
<mask id="mask7_271_76" style="mask-type:luminance" maskUnits="userSpaceOnUse" x="13" y="206" width="77" height="90">
<path d="M13.8672 295.053H89.2132L55.4672 206.326H44.4132L13.8672 295.053Z" fill="white"/>
</mask>
<g mask="url(#mask7_271_76)">
<path d="M72.0496 254.035H31.3226C25.7226 254.035 21.1406 249.453 21.1406 243.853C21.1406 238.253 25.7226 233.671 31.3226 233.671H72.0496C77.6496 233.671 82.2316 238.253 82.2316 243.853C82.2316 249.453 77.6496 254.035 72.0496 254.035Z" fill="#FEFFFF"/>
</g>
<mask id="mask8_271_76" style="mask-type:luminance" maskUnits="userSpaceOnUse" x="13" y="206" width="77" height="90">
<path d="M13.8672 295.053H89.2132L55.4672 206.326H44.4132L13.8672 295.053Z" fill="white"/>
</mask>
<g mask="url(#mask8_271_76)">
<path d="M94.1583 284.035H10.0863C4.4863 284.035 -0.0957031 279.453 -0.0957031 273.853C-0.0957031 268.253 4.4863 263.671 10.0863 263.671H94.1593C99.7593 263.671 104.341 268.253 104.341 273.853C104.34 279.453 99.7583 284.035 94.1583 284.035Z" fill="#FEFFFF"/>
</g>
<mask id="mask9_271_76" style="mask-type:luminance" maskUnits="userSpaceOnUse" x="13" y="206" width="77" height="90">
<path d="M13.8672 295.053H89.2132L55.4672 206.326H44.4132L13.8672 295.053Z" fill="white"/>
</mask>
<g mask="url(#mask9_271_76)">
<path opacity="0.15" d="M46.7402 181.89L52.5582 303.2H107.249L46.7402 181.89Z" fill="#AF3817"/>
</g>
<path d="M93.4314 309.89H8.77637C4.37637 309.89 0.776367 306.29 0.776367 301.89C0.776367 297.49 4.37637 293.89 8.77637 293.89H93.4314C97.8314 293.89 101.431 297.49 101.431 301.89C101.431 306.29 97.8314 309.89 93.4314 309.89Z" fill="#AF3817"/>
<path d="M444.927 299.728L414.811 230.663L346.968 297.059L351.386 307.192L444.927 299.728Z" fill="#E94F1D"/>
<mask id="mask10_271_76" style="mask-type:luminance" maskUnits="userSpaceOnUse" x="346" y="230" width="99" height="78">
<path d="M444.927 299.728L414.811 230.663L346.968 297.059L351.386 307.192L444.927 299.728Z" fill="white"/>
</mask>
<g mask="url(#mask10_271_76)">
<path d="M384.072 262.79L400.351 300.123C402.589 305.256 400.221 311.287 395.088 313.526C389.955 315.764 383.924 313.396 381.685 308.263L365.406 270.93C363.168 265.797 365.536 259.766 370.669 257.527C375.803 255.289 381.834 257.657 384.072 262.79Z" fill="#FEFFFF"/>
</g>
<mask id="mask11_271_76" style="mask-type:luminance" maskUnits="userSpaceOnUse" x="346" y="230" width="99" height="78">
<path d="M444.927 299.728L414.811 230.663L346.968 297.059L351.386 307.192L444.927 299.728Z" fill="white"/>
</mask>
<g mask="url(#mask11_271_76)">
<path d="M402.735 230.533L436.339 307.598C438.577 312.731 436.209 318.762 431.076 321.001C425.943 323.239 419.912 320.871 417.673 315.738L384.069 238.673C381.831 233.54 384.199 227.509 389.332 225.27C394.465 223.032 400.497 225.4 402.735 230.533Z" fill="#FEFFFF"/>
</g>
<mask id="mask12_271_76" style="mask-type:luminance" maskUnits="userSpaceOnUse" x="346" y="230" width="99" height="78">
<path d="M444.927 299.728L414.811 230.663L346.968 297.059L351.386 307.192L444.927 299.728Z" fill="white"/>
</mask>
<g mask="url(#mask12_271_76)">
<path opacity="0.15" d="M328.056 314.826L436.929 261.006L415.069 210.874L328.056 314.826Z" fill="#AF3817"/>
</g>
<path d="M426.725 220.866L460.561 298.464C462.32 302.497 460.459 307.236 456.425 308.995C452.392 310.754 447.653 308.893 445.894 304.859L412.058 227.261C410.299 223.228 412.16 218.489 416.194 216.73C420.228 214.972 424.966 216.833 426.725 220.866Z" fill="#AF3817"/>
</svg>
