<svg width="16" height="17" viewBox="0 0 16 17" fill="none" xmlns="http://www.w3.org/2000/svg">
<path fill-rule="evenodd" clip-rule="evenodd" d="M8.88877 8.01056V1.655C8.88877 1.41925 8.79512 1.19316 8.62843 1.02646C8.46173 0.859764 8.23563 0.766113 7.99989 0.766113C7.76414 0.766113 7.53805 0.859764 7.37135 1.02646C7.20465 1.19316 7.111 1.41925 7.111 1.655V8.01056L5.13766 5.543C5.06615 5.4478 4.97624 5.36795 4.87326 5.30817C4.77029 5.24838 4.65636 5.2099 4.53823 5.195C4.4201 5.1801 4.30018 5.18908 4.18559 5.22141C4.07099 5.25375 3.96407 5.30877 3.87115 5.38323C3.77823 5.45768 3.70122 5.55004 3.64468 5.65483C3.58815 5.75962 3.55324 5.8747 3.54203 5.99323C3.53083 6.11177 3.54355 6.23135 3.57944 6.34488C3.61534 6.45841 3.67368 6.56357 3.751 6.65411L7.30655 11.0986C7.38984 11.2024 7.49538 11.2862 7.61539 11.3437C7.73539 11.4013 7.86679 11.4312 7.99989 11.4312C8.13298 11.4312 8.26438 11.4013 8.38439 11.3437C8.50439 11.2862 8.60993 11.2024 8.69322 11.0986L12.2488 6.65411C12.3261 6.56357 12.3844 6.45841 12.4203 6.34488C12.4562 6.23135 12.4689 6.11177 12.4577 5.99323C12.4465 5.8747 12.4116 5.75962 12.3551 5.65483C12.2986 5.55004 12.2215 5.45768 12.1286 5.38323C12.0357 5.30877 11.9288 5.25375 11.8142 5.22141C11.6996 5.18908 11.5797 5.1801 11.4615 5.195C11.3434 5.2099 11.2295 5.24838 11.1265 5.30817C11.0235 5.36795 10.9336 5.4478 10.8621 5.543L8.88877 8.01056Z" fill="white"/>
<path fill-rule="evenodd" clip-rule="evenodd" d="M5.91733 12.2097L3.87378 9.65503H1.77778C1.30628 9.65503 0.854097 9.84233 0.520699 10.1757C0.187301 10.5091 0 10.9613 0 11.4328V14.9884C0 15.4599 0.187301 15.912 0.520699 16.2454C0.854097 16.5788 1.30628 16.7661 1.77778 16.7661H14.2222C14.6937 16.7661 15.1459 16.5788 15.4793 16.2454C15.8127 15.912 16 15.4599 16 14.9884V11.4328C16 10.9613 15.8127 10.5091 15.4793 10.1757C15.1459 9.84233 14.6937 9.65503 14.2222 9.65503H12.1262L10.0818 12.2097C9.83195 12.5219 9.51509 12.774 9.15466 12.9472C8.79423 13.1205 8.39945 13.2104 7.99956 13.2104C7.59966 13.2104 7.20489 13.1205 6.84445 12.9472C6.48402 12.774 6.16716 12.5219 5.91733 12.2097ZM12.4444 12.3217C12.2087 12.3217 11.9826 12.4153 11.8159 12.582C11.6492 12.7487 11.5556 12.9748 11.5556 13.2106C11.5556 13.4463 11.6492 13.6724 11.8159 13.8391C11.9826 14.0058 12.2087 14.0995 12.4444 14.0995H12.4533C12.6891 14.0995 12.9152 14.0058 13.0819 13.8391C13.2486 13.6724 13.3422 13.4463 13.3422 13.2106C13.3422 12.9748 13.2486 12.7487 13.0819 12.582C12.9152 12.4153 12.6891 12.3217 12.4533 12.3217H12.4444Z" fill="white"/>
</svg>
