<svg width="16" height="16" viewBox="0 0 16 16" fill="none" xmlns="http://www.w3.org/2000/svg">
<path d="M14.9571 8.1608V8.0073C14.9577 7.9353 14.9564 7.86113 14.9531 7.7848C14.9531 7.7473 14.9496 7.7088 14.9476 7.6703C14.9338 7.37906 14.8953 7.08952 14.8326 6.8048C14.8222 6.7548 14.8109 6.7048 14.7986 6.6548C14.7796 6.5828 14.7561 6.5118 14.7326 6.4403C14.7086 6.3693 14.6831 6.2988 14.6561 6.2288C14.6319 6.16796 14.6057 6.10792 14.5776 6.0488C14.5641 6.0203 14.5546 5.9908 14.5401 5.9628V5.5958C14.5361 5.2458 14.5401 4.2918 14.5401 3.5258V2.7208C14.5257 2.15246 14.2907 1.61203 13.8848 1.21392C13.4789 0.815803 12.9341 0.591251 12.3656 0.587797C12.0053 0.570734 11.6462 0.640528 11.3186 0.791297H11.3146C11.263 0.817218 11.2129 0.846099 11.1646 0.877797C11.1401 0.894297 11.1146 0.913797 11.0931 0.931797C11.0007 1.00234 10.9168 1.08338 10.8431 1.1733C10.8346 1.1838 10.8256 1.1908 10.8176 1.2013C10.7976 1.1818 10.7716 1.1658 10.7511 1.1473C10.6836 1.0858 10.6129 1.02805 10.5391 0.974297C10.4994 0.947297 10.4589 0.92113 10.4176 0.895797C10.342 0.847912 10.2634 0.805149 10.1821 0.767797C10.1351 0.744761 10.0872 0.723578 10.0386 0.704297C9.94458 0.668963 9.84875 0.639297 9.75108 0.615297C9.70108 0.603297 9.65758 0.588297 9.60758 0.579297C9.44793 0.546868 9.28549 0.530121 9.12258 0.529297C9.00725 0.535964 8.89325 0.55113 8.78058 0.574797C8.73808 0.582797 8.69608 0.594297 8.65358 0.605297C8.50614 0.644514 8.36307 0.698626 8.22658 0.766797C8.11874 0.819125 8.01583 0.88104 7.91908 0.951797C7.84508 1.00713 7.77508 1.0668 7.70908 1.1308C7.68508 1.1538 7.65908 1.1723 7.63608 1.1968C7.55575 1.28213 7.48291 1.37346 7.41758 1.4708C7.40708 1.4643 7.39358 1.4593 7.38258 1.4528C7.33258 1.4223 7.27408 1.3948 7.21608 1.3668C7.17908 1.3493 7.14358 1.3308 7.10408 1.3168C7.03869 1.29012 6.97193 1.26692 6.90408 1.2473C6.86258 1.2343 6.82358 1.2193 6.78008 1.2078C6.70208 1.1873 6.61708 1.1728 6.53008 1.1578C6.48908 1.1513 6.45158 1.1413 6.40858 1.1358C6.27122 1.11895 6.13297 1.11027 5.99458 1.1098H5.99208C5.88708 1.1158 5.78325 1.12963 5.68058 1.1513C5.63791 1.1603 5.59541 1.17063 5.55308 1.1823C5.51058 1.1933 5.45908 1.2113 5.40958 1.2283C5.31754 1.26038 5.22797 1.29915 5.14158 1.3443C5.10291 1.36389 5.06489 1.38473 5.02758 1.4068C4.97376 1.43981 4.92154 1.47535 4.87108 1.5133C4.82008 1.5518 4.78008 1.5893 4.73458 1.6303C4.68908 1.6713 4.65208 1.7008 4.61408 1.7428C4.53775 1.82546 4.46925 1.91413 4.40858 2.0088C4.38858 2.0008 4.36258 2.0008 4.34008 1.9933C4.25099 1.96728 4.16051 1.94625 4.06908 1.9303C4.02608 1.9223 3.98458 1.9128 3.94008 1.9068C3.7942 1.88739 3.64724 1.8772 3.50008 1.8763H3.49608C3.21179 1.8867 2.93237 1.9533 2.67395 2.07223C2.41552 2.19117 2.18321 2.3601 1.99039 2.56927C1.79758 2.77845 1.6481 3.02372 1.55056 3.29096C1.45301 3.5582 1.40935 3.8421 1.42208 4.1263V5.7123C1.42275 5.81896 1.43175 5.9248 1.44908 6.0298V6.1298C1.43508 8.5373 1.41558 11.8353 3.40458 13.8363C4.48458 14.9198 6.03008 15.4698 8.00008 15.4698C12.7891 15.4698 14.7201 11.9258 14.9221 8.8808C14.9371 8.78546 14.9447 8.6893 14.9451 8.5923L14.9546 8.3258C14.9559 8.2728 14.9567 8.2178 14.9571 8.1608ZM13.5391 2.7198V4.8593C12.8792 4.47802 12.1275 4.28486 11.3656 4.3008C11.3581 3.9263 11.3516 3.4878 11.3516 3.0543C11.3499 2.84896 11.3626 2.64463 11.3896 2.4413L11.4076 2.3443C11.4309 2.20096 11.4737 2.0638 11.5361 1.9328C11.5454 1.91613 11.5549 1.90046 11.5646 1.8858C11.6232 1.78462 11.7125 1.70476 11.8196 1.6578C11.8429 1.6468 11.8672 1.63746 11.8926 1.6298C11.9292 1.61913 11.9664 1.6108 12.0041 1.6048L12.0281 1.6013C12.1397 1.5893 12.2519 1.58413 12.3646 1.5858C12.6679 1.58989 12.9582 1.70947 13.1764 1.92016C13.3947 2.13086 13.5243 2.41682 13.5391 2.7198ZM5.00008 5.4643V3.6318C4.99433 3.3704 5.03045 3.10977 5.10708 2.8598V2.8523C5.13475 2.77063 5.16991 2.69213 5.21258 2.6168C5.22891 2.5888 5.24675 2.56163 5.26608 2.5353C5.30789 2.47232 5.3567 2.41428 5.41158 2.3623C5.43658 2.3383 5.44908 2.3303 5.46808 2.3153C5.55808 2.2448 5.65908 2.1903 5.76808 2.1563C5.78908 2.1493 5.81025 2.1433 5.83158 2.1383C5.85291 2.1333 5.87408 2.1288 5.89508 2.1248C5.93475 2.11746 5.97458 2.11263 6.01458 2.1103C6.38458 2.0858 6.74958 2.2018 7.03808 2.4348C6.97993 2.7058 6.9501 2.98212 6.94908 3.2593V5.2773C6.95075 5.49896 6.96775 5.7198 7.00008 5.9398C7.01008 6.1708 6.93508 6.3973 6.79008 6.5773C6.57313 6.75073 6.297 6.83255 6.02058 6.8053C5.71043 6.7564 5.43114 6.58962 5.241 6.33976C5.05085 6.0899 4.96454 5.77626 5.00008 5.4643ZM7.95458 5.3238V3.2593C7.9496 2.97393 7.98907 2.68952 8.07158 2.4163C8.08508 2.3753 8.10058 2.3393 8.11608 2.3023C8.15303 2.20544 8.20101 2.11317 8.25908 2.0273C8.28308 1.9928 8.30908 1.9628 8.33208 1.9328C8.36008 1.8978 8.38991 1.86446 8.42158 1.8328C8.43458 1.8203 8.44858 1.8113 8.46208 1.7998C8.53408 1.73846 8.61258 1.68746 8.69758 1.6468C8.71258 1.6398 8.72808 1.6303 8.74308 1.6243C8.77908 1.60996 8.81425 1.59746 8.84858 1.5868C8.87525 1.5788 8.90141 1.57163 8.92708 1.5653C8.95208 1.55896 8.97758 1.55346 9.00358 1.5488C9.05358 1.5408 9.10358 1.5343 9.14758 1.5318C9.25291 1.5318 9.35741 1.54213 9.46108 1.5628C9.60008 1.5918 9.73308 1.6438 9.85508 1.7168C9.88208 1.7328 9.91358 1.7458 9.93858 1.7628C10.1376 1.9018 10.2971 2.0903 10.4001 2.3103C10.3651 2.55763 10.3484 2.80596 10.3501 3.0553C10.3501 3.5003 10.3566 3.9498 10.3641 4.3328C9.18358 4.4338 8.39108 4.7603 7.95458 5.3238ZM2.42208 4.1258C2.41005 3.97156 2.42896 3.81647 2.47769 3.66964C2.52643 3.52281 2.604 3.38719 2.70586 3.27075C2.80772 3.15431 2.93182 3.05939 3.07087 2.99157C3.20992 2.92375 3.36111 2.88439 3.51558 2.8758C3.66225 2.8748 3.80725 2.88996 3.95058 2.9213C3.95966 2.92035 3.96882 2.92191 3.97708 2.9258C4.00858 2.9333 4.03008 2.9493 4.05958 2.9588C4.01958 3.18146 3.99975 3.4058 4.00008 3.6318V5.4643C3.99797 5.87236 4.09382 6.27496 4.27958 6.6383C4.04376 6.75943 3.78043 6.81698 3.51558 6.8053C3.2342 6.77968 2.97071 6.65624 2.77092 6.45646C2.57113 6.25667 2.4477 5.99317 2.42208 5.7118V4.1258ZM13.9311 8.7433L13.9256 8.7933C13.5841 14.1963 8.92958 14.4698 8.00008 14.4698C6.28208 14.4698 5.01158 14.0318 4.11558 13.1308C2.73908 11.7458 2.49158 9.4698 2.45458 7.4678C2.77248 7.67151 3.13842 7.78791 3.51558 7.8053C4.01379 7.82662 4.50626 7.69223 4.92458 7.4208C5.23862 7.66289 5.62213 7.79768 6.01858 7.8053C6.28818 7.82238 6.55844 7.78466 6.81307 7.69443C7.06769 7.6042 7.30139 7.46332 7.50008 7.2803C7.54441 7.23263 7.58575 7.18263 7.62408 7.1303C7.73908 7.5373 7.96408 7.9048 8.27408 8.1923C6.96653 8.61903 5.79406 9.38183 4.87408 10.4043C4.78484 10.5024 4.73823 10.632 4.74451 10.7645C4.75079 10.897 4.80945 11.0216 4.90758 11.1108C5.00571 11.2 5.13527 11.2467 5.26777 11.2404C5.40026 11.2341 5.52484 11.1754 5.61408 11.0773C6.25266 10.3701 7.03001 9.80204 7.89771 9.4084C8.76541 9.01477 9.70488 8.80402 10.6576 8.7893H10.8761V10.3863C10.8761 10.5189 10.9288 10.6461 11.0225 10.7399C11.1163 10.8336 11.2435 10.8863 11.3761 10.8863C11.5087 10.8863 11.6359 10.8336 11.7296 10.7399C11.8234 10.6461 11.8761 10.5189 11.8761 10.3863V8.7013C11.8751 8.47472 11.7963 8.25534 11.6531 8.0798C11.5991 7.97775 11.5104 7.89833 11.4031 7.8558C11.245 7.75595 11.0621 7.70242 10.8751 7.7013H9.53108C9.26879 7.67373 9.02514 7.55283 8.84452 7.36065C8.6639 7.16847 8.55834 6.91779 8.54708 6.6543C8.54708 6.1793 8.54708 5.2953 11.2421 5.2953C11.62 5.26165 12.0009 5.30476 12.3618 5.42205C12.7227 5.53933 13.0561 5.72837 13.3421 5.9778C13.4836 6.1298 13.5986 6.3043 13.6831 6.4938C13.7006 6.5308 13.7211 6.5663 13.7361 6.6048C13.7601 6.6638 13.7771 6.7258 13.7966 6.7868C13.8329 6.9018 13.8622 7.01846 13.8846 7.1368L13.8991 7.2093C13.9121 7.28963 13.9226 7.37013 13.9306 7.4508C13.9306 7.4748 13.9361 7.5008 13.9386 7.5238C13.9452 7.60246 13.9502 7.68013 13.9536 7.7568L13.9566 7.8353C13.9566 7.9073 13.9596 7.9783 13.9596 8.0473V8.1563C13.9602 8.2103 13.9592 8.2628 13.9566 8.3138C13.9566 8.3953 13.9511 8.4753 13.9481 8.5478V8.5688C13.9475 8.62735 13.9418 8.68574 13.9311 8.7433Z" fill="#F94B65"/>
</svg>
