<svg width="27" height="30" viewBox="0 0 27 30" fill="none" xmlns="http://www.w3.org/2000/svg">
<path fill-rule="evenodd" clip-rule="evenodd" d="M25.4667 7.40058L25.5067 7.43258C26.2227 7.98324 26.6667 8.83658 26.6667 9.77524V24.7832C26.6688 25.3799 26.5531 25.9711 26.3262 26.523C26.0993 27.0748 25.7658 27.5765 25.3446 27.9991C24.9234 28.4218 24.423 28.7572 23.8719 28.986C23.3208 29.2148 22.73 29.3326 22.1334 29.3326H4.53336C3.93669 29.3326 3.34588 29.2148 2.79483 28.986C2.24377 28.7572 1.74331 28.4218 1.32214 27.9991C0.900972 27.5765 0.567383 27.0748 0.340505 26.523C0.113626 25.9711 -0.00207767 25.3799 2.82379e-05 24.7832V9.77524C2.82379e-05 8.83658 0.444028 7.98324 1.16003 7.43258L1.19869 7.40191L11.5854 0.559245C12.0855 0.195773 12.6878 0 13.306 0C13.9243 0 14.5266 0.195773 15.0267 0.559245L25.4667 7.40058ZM10.6667 15.9992V26.6659H8.00003V15.7326C8.00003 14.4099 9.07736 13.3326 10.4 13.3326H16.2667C17.5894 13.3326 18.6667 14.4099 18.6667 15.7326V26.6659H16V15.9992H10.6667Z" fill="white"/>
</svg>
