<svg width="16" height="17" viewBox="0 0 16 17" fill="none" xmlns="http://www.w3.org/2000/svg">
<path d="M13.9999 2.5V10.8333C13.9999 11.4522 13.7541 12.0457 13.3165 12.4832C12.8789 12.9208 12.2854 13.1667 11.6666 13.1667C11.0477 13.1667 10.4543 12.9208 10.0167 12.4832C9.57909 12.0457 9.33325 11.4522 9.33325 10.8333C9.33325 10.2145 9.57909 9.621 10.0167 9.18342C10.4543 8.74583 11.0477 8.5 11.6666 8.5C12.0266 8.5 12.3666 8.58 12.6666 8.72667V4.81333L5.99992 6.23333V12.1667C5.99992 12.7855 5.75409 13.379 5.3165 13.8166C4.87892 14.2542 4.28542 14.5 3.66659 14.5C3.04775 14.5 2.45425 14.2542 2.01667 13.8166C1.57908 13.379 1.33325 12.7855 1.33325 12.1667C1.33325 11.5478 1.57908 10.9543 2.01667 10.5168C2.45425 10.0792 3.04775 9.83333 3.66659 9.83333C4.02659 9.83333 4.36659 9.91333 4.66659 10.06V4.5L13.9999 2.5Z" fill="white"/>
</svg>
