<svg width="16" height="16" viewBox="0 0 16 16" fill="none" xmlns="http://www.w3.org/2000/svg">
<path d="M8.39533 15.5056L8.38799 15.507L8.34066 15.5303L8.32733 15.533L8.31799 15.5303L8.27066 15.507C8.26355 15.5047 8.25821 15.5058 8.25466 15.5103L8.25199 15.517L8.24066 15.8023L8.24399 15.8156L8.25066 15.8243L8.31999 15.8736L8.32999 15.8763L8.33799 15.8736L8.40733 15.8243L8.41533 15.8136L8.41799 15.8023L8.40666 15.5176C8.40488 15.5105 8.4011 15.5065 8.39533 15.5056ZM8.57199 15.4303L8.56333 15.4316L8.43999 15.4936L8.43333 15.5003L8.43133 15.5076L8.44333 15.7943L8.44666 15.8023L8.45199 15.807L8.58599 15.869C8.59444 15.8712 8.60088 15.8694 8.60533 15.8636L8.60799 15.8543L8.58533 15.445C8.5831 15.437 8.57866 15.4321 8.57199 15.4303ZM8.09533 15.4316C8.09239 15.4298 8.08888 15.4293 8.08552 15.43C8.08217 15.4308 8.07923 15.4328 8.07733 15.4356L8.07333 15.445L8.05066 15.8543C8.0511 15.8623 8.05488 15.8676 8.06199 15.8703L8.07199 15.869L8.20599 15.807L8.21266 15.8016L8.21533 15.7943L8.22666 15.5076L8.22466 15.4996L8.21799 15.493L8.09533 15.4316Z" fill="#F94B65"/>
<path d="M9.52996 3.31938L12.6793 6.46938C12.8638 6.65387 12.9902 6.88846 13.0427 7.14407C13.0952 7.39968 13.0715 7.66508 12.9746 7.90738L11.398 11.8494C11.3095 12.07 11.1637 12.2631 10.9755 12.4084C10.7874 12.5538 10.5638 12.6462 10.328 12.676L6.94196 13.0994C6.85485 13.1096 6.76374 13.122 6.66863 13.1367L6.37263 13.1847L6.21796 13.2127L5.73596 13.306L5.40596 13.376L4.9093 13.488L4.27263 13.64L3.23796 13.904L2.8073 14.02C2.69861 14.0499 2.58417 14.052 2.47445 14.0262C2.36473 14.0004 2.26326 13.9474 2.17933 13.8722C2.0954 13.7969 2.0317 13.7018 1.99407 13.5956C1.95644 13.4893 1.94609 13.3753 1.96396 13.264L1.98663 13.1667L2.1833 12.4254L2.3593 11.7267L2.5113 11.09L2.62263 10.5934L2.69263 10.2627L2.78663 9.78138L2.83996 9.47671L2.88263 9.19138L3.32263 5.67138C3.35257 5.43545 3.44508 5.21182 3.59055 5.02368C3.73602 4.83554 3.92917 4.68974 4.14996 4.60138L8.09196 3.02471C8.33426 2.92782 8.59965 2.90416 8.85527 2.95666C9.11088 3.00915 9.34547 3.13483 9.52996 3.31938ZM7.05663 7.05604C6.8882 7.22458 6.76801 7.43518 6.70857 7.66591C6.64913 7.89665 6.6526 8.1391 6.71863 8.36804C6.67003 8.3965 6.62523 8.43099 6.5853 8.47071L3.87996 11.176C3.86223 11.194 3.84998 11.2167 3.84463 11.2414L3.7853 11.498L3.66663 11.9934L3.6093 12.2274C3.60343 12.2499 3.60355 12.2735 3.60964 12.296C3.61573 12.3184 3.62759 12.3389 3.64403 12.3553C3.66048 12.3718 3.68093 12.3836 3.70337 12.3897C3.72582 12.3958 3.74946 12.3959 3.77196 12.39L4.24996 12.2734L4.75863 12.1547C4.78315 12.1491 4.80557 12.1366 4.8233 12.1187L7.52863 9.41338C7.5683 9.37365 7.6028 9.32908 7.6313 9.28071C7.85719 9.34565 8.09625 9.34972 8.32423 9.29251C8.5522 9.2353 8.76101 9.11883 8.92947 8.95492C9.09794 8.79101 9.22009 8.58548 9.28353 8.35916C9.34697 8.13283 9.34945 7.89376 9.29073 7.66617C9.23201 7.43857 9.11416 7.23054 8.94914 7.06317C8.78412 6.89579 8.57778 6.77501 8.35104 6.71307C8.1243 6.65113 7.88522 6.65023 7.65802 6.71046C7.43082 6.77069 7.22358 6.88991 7.0573 7.05604H7.05663ZM10.162 2.06671C10.2767 1.95183 10.4294 1.88275 10.5914 1.87244C10.7534 1.86213 10.9136 1.91129 11.042 2.01071L11.1046 2.06671L13.9333 4.89471C14.0541 5.0144 14.1247 5.17576 14.1304 5.34574C14.1362 5.51573 14.0768 5.68149 13.9643 5.8091C13.8519 5.93671 13.6949 6.01651 13.5255 6.03218C13.3562 6.04785 13.1872 5.99819 13.0533 5.89338L12.99 5.83738L10.162 3.00938C10.037 2.88436 9.96677 2.71482 9.96677 2.53804C9.96677 2.36127 10.037 2.19173 10.162 2.06671Z" fill="#F94B65"/>
</svg>
