<svg width="512" height="466" viewBox="0 0 512 466" fill="none" xmlns="http://www.w3.org/2000/svg">
<path d="M461.91 206.191C467.367 197.018 460.631 182.197 458.281 171.624C455.931 161.061 449.717 150.156 445.165 140.63C440.622 131.095 435.637 121.864 429.216 113.435C422.796 105.006 416.129 96.8319 409.059 89.4505C401.99 82.079 393.957 75.5886 385.442 68.9121C376.927 62.2356 368.736 57.5073 358.894 52.2698C349.051 47.0324 339.278 42.539 328.206 38.7701C317.135 34.9913 304.519 32.6418 292.465 30.3021C280.41 27.9624 264.373 27.9428 251.492 28.0211C238.612 28.0995 224.03 30.3315 212.172 32.9257C200.314 35.5199 188.525 38.5057 177.827 42.7838C167.119 47.0618 158.398 51.3594 148.939 57.0961C139.47 62.8328 131.024 68.2953 122.931 75.2557C114.839 82.2161 107.258 89.2058 100.366 96.8417C93.4829 104.478 88.016 112.779 82.1263 121.756C76.2464 130.743 71.1433 139.994 66.6203 150.371C62.0875 160.738 59.1279 172.162 55.7553 183.606C52.3729 195.05 51.7142 208.374 49.905 220.856C48.0859 233.328 49.315 249.666 50.9079 261.991C52.5008 274.316 54.7328 287.356 58.4495 298.536C62.176 309.715 65.1946 319.573 70.6517 329.461C76.0989 339.358 80.2581 348.639 87.0426 357.195C93.8271 365.751 99.6185 373.524 107.199 381.179C114.78 388.834 121.801 394.855 130.306 401.248C138.811 407.63 147.405 414.16 157.021 418.702C166.647 423.235 177.62 429.696 187.895 432.016C198.17 434.336 212.723 443.186 220.028 435.266C171.416 427.376 130.581 402.912 98.3501 364.537C66.1189 326.162 48.5776 268.188 54.074 217.175C59.5802 166.161 78.8521 123.753 115.557 87.4926C152.262 51.2322 202.153 35.0402 253.459 32.9159C304.765 30.7916 356.376 48.5204 394.36 82.5489C432.343 116.568 453.975 157.38 461.91 206.191Z" fill="white" stroke="white" stroke-width="0.3"/>
<path d="M155.133 235.56C146.697 230.126 142.302 239.466 142.351 247.307C142.4 255.148 145.075 262.363 149.922 268.159C154.77 273.964 160.364 276.803 167.847 278.702C175.329 280.611 185.84 281.394 193.48 279.612C201.11 277.821 207.511 276.196 213.391 271.047C219.271 265.897 222.693 261.433 224.954 254.169C227.206 246.906 224.551 238.8 221.316 232.329C218.072 225.848 213.116 221.521 207.541 217.645C201.956 213.778 196.194 209.803 189.774 206.945C183.343 204.096 176.667 201.267 170.944 197.302C165.231 193.337 159.696 189.627 157.1 182.696C154.504 175.765 156.943 166.308 161.279 160.425C165.615 154.541 172.203 152.153 178.712 150.371C185.211 148.579 195.791 150.674 200.609 155.041C205.427 159.416 212.339 165.006 212.162 171.927C211.985 178.849 213.018 191.536 220.933 185.555C228.838 179.563 221.493 168.951 219.802 162.363C218.111 155.775 211.523 151.399 205.496 148.217C199.478 145.036 189.42 144.125 182.34 145.173C175.261 146.22 166.657 147.855 160.738 152.055C154.819 156.245 150.168 160.337 147.592 167.356C145.016 174.375 145.812 184.801 149.922 190.821C154.022 196.852 159.116 200.503 165.271 203.93C171.416 207.366 178.515 209.656 184.552 213.122C190.599 216.578 196.243 218.927 201.592 223.567C206.941 228.208 210.835 233.797 213.214 240.386C215.594 246.974 215.732 257.185 211.425 263.215C207.118 269.236 201.671 272.838 194.473 274.728C187.276 276.617 176.686 275.658 170.108 272.535C163.53 269.412 158.85 265.163 155.448 258.741C152.046 252.319 152.98 242.275 155.133 235.56Z" fill="white" stroke="white" stroke-width="0.3"/>
<path d="M358.668 147.454C349.917 145.819 341.274 145.682 332.12 145.496C322.965 145.31 312.887 145.946 303.821 145.711C294.756 145.476 287.018 149.167 278.04 148.433C269.063 147.698 260.686 156.205 273.124 153.327C285.553 150.439 281.531 161.11 282.957 169.97C284.382 178.829 283.684 188.384 283.94 197.38C284.196 206.377 283.832 216.01 283.94 224.791C284.048 233.572 282.652 243.009 281.973 251.223C281.295 259.436 279.053 267.65 277.382 275.041C275.71 282.432 273.39 288.883 269.929 295.031C266.477 301.189 259.536 306.113 253.154 306.681C246.783 307.239 238.189 305.241 233.037 300.924C227.884 296.607 218.347 290.88 216.095 300.171C234.856 316.069 268.326 316.93 280.685 292.035C293.055 267.15 293.674 238.164 294.756 210.107C312.228 205.917 331.589 213.181 347.852 207.17C331.48 202.745 312.022 206.113 294.756 206.191C294.952 187.62 293.704 169.402 291.806 151.369C302.956 149.529 317.105 151.634 328.187 150.39C339.268 149.147 352.68 157.106 358.668 147.454Z" fill="white" stroke="white" stroke-width="0.3"/>
<path d="M246.576 279.613C265.012 281.747 252.84 257.4 254.442 247.307C256.045 237.214 252.142 233.543 253.459 224.791C254.777 216.039 251.08 211.252 252.476 203.254C253.872 195.256 250.509 188.648 253.135 181.394C255.76 174.14 250.273 165.261 253.528 158.291C256.792 151.33 250.844 143.362 245.347 149.167C239.861 154.982 244.354 162.97 242.643 169.97C240.932 176.969 243.459 185.202 242.643 192.486C241.827 199.769 243.105 207.591 242.643 215.001C242.181 222.412 242.791 230.675 243.302 237.84C243.813 245.006 244.079 252.006 244.61 259.054C245.141 266.103 246.272 272.574 246.576 279.613Z" fill="white" stroke="white" stroke-width="0.3"/>
<path d="M385.216 360.866C379.798 358.898 379.503 354.395 375.599 349.882C371.706 345.369 364.449 353.533 361.617 354.992C365.088 360.18 370.182 367.063 376.366 368.697C376.681 366.221 371.44 361.531 375.639 360.278C379.837 359.025 381.371 363.401 385.216 360.866ZM373.417 352.055C376.887 354.238 372.866 361.424 368.746 358.653C364.636 355.883 369.916 349.853 373.417 352.055Z" fill="white"/>
<path d="M353.751 369.676C341.962 366.818 336.298 383.538 348.176 387.953C360.054 392.368 365.304 372.476 353.751 369.676ZM351.785 372.613C359.061 373.739 358.835 386.387 350.791 385.33C342.748 384.273 343.329 371.301 351.785 372.613Z" fill="white" stroke="white" stroke-width="0.3"/>
<path d="M329.17 388.276C324.952 389.079 320.753 393.161 319.337 397.087C324.745 400.092 327.724 407.993 334.086 408.835C331.136 403.95 329.219 400.034 334.086 395.129C330.212 395.658 324.44 402.54 324.253 394.15C326.898 393.984 329.652 391.018 329.17 388.276Z" fill="white"/>
<path d="M155.133 235.56C146.697 230.126 142.302 239.466 142.351 247.307C142.4 255.148 145.075 262.363 149.922 268.159C154.77 273.964 160.364 276.803 167.847 278.702C175.329 280.611 185.84 281.394 193.48 279.612C201.11 277.821 207.511 276.196 213.391 271.047C219.271 265.897 222.693 261.433 224.954 254.169C227.206 246.906 224.551 238.8 221.316 232.329C218.072 225.848 213.116 221.521 207.541 217.645C201.956 213.778 196.194 209.803 189.774 206.945C183.343 204.096 176.667 201.267 170.944 197.302C165.231 193.337 159.696 189.627 157.1 182.696C154.504 175.765 156.943 166.308 161.279 160.425C165.615 154.541 172.203 152.153 178.712 150.371C185.211 148.579 195.791 150.674 200.609 155.041C205.427 159.416 212.339 165.006 212.162 171.927C211.985 178.849 213.018 191.536 220.933 185.555C228.838 179.563 221.493 168.951 219.802 162.363C218.111 155.775 211.523 151.399 205.496 148.217C199.478 145.036 189.42 144.125 182.34 145.173C175.261 146.22 166.657 147.855 160.738 152.055C154.819 156.245 150.168 160.337 147.592 167.356C145.016 174.375 145.812 184.801 149.922 190.821C154.022 196.852 159.116 200.503 165.271 203.93C171.416 207.366 178.515 209.656 184.552 213.122C190.599 216.578 196.243 218.927 201.592 223.567C206.941 228.208 210.835 233.797 213.214 240.386C215.594 246.974 215.732 257.185 211.425 263.215C207.118 269.236 201.671 272.838 194.473 274.728C187.276 276.617 176.686 275.658 170.108 272.535C163.53 269.412 158.85 265.163 155.448 258.741C152.046 252.319 152.98 242.275 155.133 235.56Z" fill="white"/>
<path d="M358.668 147.454C349.917 145.819 341.274 145.682 332.12 145.496C322.965 145.31 312.887 145.946 303.821 145.711C294.756 145.476 287.018 149.167 278.04 148.433C269.063 147.698 260.686 156.205 273.124 153.327C285.553 150.439 281.531 161.11 282.957 169.97C284.382 178.829 283.684 188.384 283.94 197.38C284.196 206.377 283.832 216.01 283.94 224.791C284.048 233.572 282.652 243.009 281.973 251.223C281.295 259.436 279.053 267.65 277.382 275.041C275.71 282.432 273.39 288.883 269.929 295.031C266.477 301.189 259.536 306.113 253.154 306.681C246.783 307.239 238.189 305.241 233.037 300.924C227.884 296.607 218.347 290.88 216.095 300.171C234.856 316.069 268.326 316.93 280.685 292.035C293.055 267.15 293.674 238.164 294.756 210.107C312.228 205.917 331.589 213.181 347.852 207.17C331.48 202.745 312.022 206.113 294.756 206.191C294.952 187.62 293.704 169.402 291.806 151.369C302.956 149.529 317.105 151.634 328.187 150.39C339.268 149.147 352.68 157.106 358.668 147.454Z" fill="white"/>
<path d="M246.576 279.613C265.012 281.747 252.84 257.4 254.442 247.307C256.045 237.214 252.142 233.543 253.459 224.791C254.777 216.039 251.08 211.252 252.476 203.254C253.872 195.256 250.509 188.648 253.135 181.394C255.76 174.14 250.273 165.261 253.528 158.291C256.792 151.33 250.844 143.362 245.347 149.167C239.861 154.982 244.354 162.97 242.643 169.97C240.932 176.969 243.459 185.202 242.643 192.486C241.827 199.769 243.105 207.591 242.643 215.001C242.181 222.412 242.791 230.675 243.302 237.84C243.813 245.006 244.079 252.006 244.61 259.054C245.141 266.103 246.272 272.574 246.576 279.613Z" fill="white"/>
<path d="M413.73 223.812C405.048 220.513 399.62 232.623 405.618 238.741C411.626 244.86 423.061 241.306 421.596 231.644C418.479 234.874 414.025 242.246 408.086 236.284C402.138 230.332 410.908 226.387 413.73 223.812Z" fill="white"/>
<path d="M386.199 243.391C386.602 246.612 399.286 258.663 400.594 255.824C401.911 252.985 388.431 240.944 386.199 243.391Z" fill="white"/>
<path d="M435.362 247.307C433.494 240.611 425.883 251.037 424.546 254.16C428.764 256.578 431.645 261.923 435.608 264.674C439.58 267.425 445.499 259.818 446.178 256.118C442.451 256.235 440.838 260.386 437.328 261.991C430.927 257.518 439.285 255.795 439.295 251.223C432.677 259.681 425.146 251.174 435.362 247.307Z" fill="white"/>
<path d="M377.349 257.097C367.674 255.52 362.738 268.061 370.241 273.964C377.743 279.857 384.753 272.544 388.165 266.886C385.481 265.564 383.996 262.402 381.283 261.012C380.565 263 378.146 263.91 377.349 265.907C379.375 267.934 381.292 263.871 383.249 265.907C382.974 272.309 374.911 275.736 370.781 269.51C366.652 263.284 376.219 260.728 377.349 257.097Z" fill="white"/>
<path d="M401.931 273.739C404.419 275.658 417.938 285.095 420.819 281.796C423.71 278.487 414.861 264.86 412.747 262.97C410.279 268.394 417.604 272.877 416.68 278.634C411.862 277.283 406.7 271.242 401.931 273.739Z" fill="white"/>
<path d="M354.735 276.676C350.379 274.894 345.757 282.011 343.919 285.486C348.992 288.55 352.109 295.246 357.684 297.234C359.533 292.985 365.816 292.447 365.55 287.444C361.008 286.592 359.857 293.151 355.718 293.318C351.313 288.452 358.038 287.043 358.668 282.549C354.676 281.159 352.65 289.921 349.602 285.702C346.564 281.492 353.909 280.19 354.735 276.676Z" fill="white"/>
<path d="M392.098 284.507C386.808 283.861 396.828 298.144 401.242 298.839C405.667 299.544 395.559 284.928 392.098 284.507Z" fill="white"/>
<path d="M335.07 294.297C330.242 295.599 322.386 300.787 323.27 306.044C325.797 305.447 327.282 302.51 330.153 303.107C332.267 306.573 335.974 312.486 340.969 312.897C339.878 305.956 326.968 301.727 335.07 294.297Z" fill="white"/>
<path d="M379.316 296.255C374.537 298.917 368.707 302.804 367.517 308.002C370.673 309.089 371.568 304.84 374.4 305.065C377.458 308.952 381.302 312.711 385.215 315.834C387.526 310.675 379.827 306.798 376.366 303.107C376.042 300.249 380.437 299.387 379.316 296.255Z" fill="white"/>
<path d="M420.613 301.149C414.772 303.959 420.269 310.469 420.613 314.855C415.441 312.27 403.642 311.605 409.059 317.547C414.477 323.489 415.51 325.946 421.596 326.602C420.809 322.647 415.382 321.13 414.713 316.813C417.466 318.487 420.75 318.311 423.562 319.75C425.647 316.627 422.835 313.22 422.579 309.96C426.434 310.44 428.007 315.197 431.428 316.813C433.523 310.175 423.405 306.71 420.613 301.149Z" fill="white"/>
<path d="M325.237 327.581C320.832 323.401 312.248 318.056 305.572 318.771C307.961 324.87 309.17 335.061 315.404 337.371C313.713 333.063 314.873 329.647 318.354 326.602C320.851 326.377 322.926 329.882 325.237 327.581ZM312.454 328.56C310.802 326.828 310.507 324.733 309.505 322.687C313.526 321.757 317.784 326.769 312.454 328.56Z" fill="white"/>
<path d="M363.584 328.56C377.212 332.78 361.922 321.61 354.951 320.513C347.989 319.427 355.334 336.715 359.651 339.329C360.182 335.413 359.454 331.546 363.584 328.56ZM361.617 326.602C360.909 332.956 354.715 329.148 354.734 324.644C357.409 324.028 359.071 326.671 361.617 326.602Z" fill="white"/>
<path d="M396.031 325.623C391.872 325.114 395.972 332.78 400.19 336.167C404.409 339.554 395.019 346.808 392.344 341.042C389.66 335.276 382.118 333.856 383.986 337.616C385.855 341.375 391.203 344.87 395.038 347.151C398.883 349.432 407.299 339.701 404.654 336.617C402.009 333.533 399.827 326.084 396.031 325.623Z" fill="white"/>
<path d="M303.605 346.181C295.857 348.071 296.997 336.911 290.832 336.402C284.667 335.893 278.974 343.362 283.202 346.916C287.43 350.479 290.046 355.628 294.756 356.95C295.198 354.463 294.264 352.036 291.806 351.076C292.337 343.783 303.094 353.455 303.605 346.181ZM284.923 342.266C286.762 339.211 294.962 338.35 293.438 343.91C291.914 349.471 284.894 346.436 284.923 342.266Z" fill="white"/>
<path d="M347.852 351.076C346.19 345.056 339.288 339.583 334.086 336.392C334.774 342.706 342.149 349.108 347.852 351.076Z" fill="white"/>
<path d="M323.27 348.139C319.239 351.527 314.539 354.365 311.471 358.908C313.959 360.924 316.22 358.223 318.354 356.95C321.687 359.534 323.831 365.085 327.96 366.945C332.09 368.805 329.888 360.964 324.991 359.153C320.094 357.332 323.369 350.998 323.27 348.139Z" fill="white"/>
<path d="M270.174 353.034C266.684 357.224 259.191 359.936 259.358 365.76C260.971 364.429 263.311 363.812 264.275 361.845C269.27 364.008 272.367 373.455 278.04 371.634C275.681 367.865 274.432 365.535 270.42 362.579C266.408 359.622 271.63 356.323 270.174 353.034Z" fill="white"/>
<path d="M312.455 384.361C313.969 378.693 303.831 369.422 298.689 369.676C302.071 375.286 307.371 380.034 312.455 384.361Z" fill="white"/>
<path d="M353.751 369.676C341.962 366.818 336.298 383.538 348.176 387.953C360.054 392.368 365.304 372.476 353.751 369.676ZM351.785 372.613C359.061 373.739 358.835 386.387 350.791 385.33C342.748 384.273 343.329 371.301 351.785 372.613Z" fill="white"/>
<path d="M250.509 375.55C246.586 373.465 238.868 379.916 241.906 385.095C244.934 390.274 252.446 384.733 256.409 384.361C258.71 390.91 248.798 389.011 249.526 394.15C254.147 394.248 262.063 390.254 259.654 384.067C257.254 377.87 249.388 383.587 244.61 383.382C243.764 379.182 248.897 378.301 250.509 375.55Z" fill="white"/>
<path d="M299.672 396.108C298.227 390.058 291.157 385.379 286.89 381.424C284.746 385.947 291.098 388.257 292.789 392.192C288.188 392.036 273.94 388.276 277.795 394.395C281.649 400.513 284.451 402.403 289.839 405.898C292.347 401.13 284.097 399.652 283.94 395.129C289.397 394.698 294.156 396.842 299.672 396.108Z" fill="white"/>
<path d="M329.17 388.276C324.952 389.079 320.753 393.161 319.337 397.087C324.745 400.092 327.724 407.993 334.086 408.835C331.136 403.95 329.219 400.034 334.086 395.129C330.212 395.658 324.44 402.54 324.253 394.15C326.898 393.984 329.652 391.018 329.17 388.276Z" fill="white"/>
<path d="M277.057 417.645C273.026 412.907 268.984 405.467 262.308 403.94C264.383 409.216 271.62 418.634 277.057 417.645Z" fill="white"/>
</svg>
