<svg width="242" height="241" viewBox="0 0 242 241" fill="none" xmlns="http://www.w3.org/2000/svg">
<path d="M239.797 104.79C242.953 99.4469 239.057 90.814 237.698 84.6558C236.339 78.5032 232.745 72.1512 230.113 66.6031C227.486 61.0493 224.602 55.6722 220.889 50.7627C217.176 45.8533 213.321 41.0921 209.232 36.7927C205.143 32.4991 200.498 28.7186 195.573 24.8298C190.649 20.941 185.912 18.1869 180.22 15.1363C174.528 12.0857 168.875 9.46846 162.472 7.27317C156.069 5.07218 148.774 3.70368 141.802 2.34089C134.831 0.9781 125.556 0.966695 118.107 1.01231C110.658 1.05793 102.225 2.358 95.3667 3.86904C88.5089 5.38009 81.6908 7.11921 75.504 9.61101C69.3114 12.1028 64.2676 14.606 58.7972 17.9474C53.3212 21.2888 48.4365 24.4706 43.7566 28.5247C39.0766 32.5789 34.6924 36.6502 30.7062 41.0978C26.7257 45.5454 23.564 50.3807 20.1578 55.6095C16.7573 60.844 13.8061 66.2324 11.1903 72.2766C8.56887 78.3151 6.85725 84.9694 4.9068 91.6351C2.95066 98.3008 2.56967 106.061 1.52336 113.331C0.471373 120.596 1.18218 130.113 2.10338 137.291C3.02458 144.47 4.3154 152.065 6.46488 158.577C8.62004 165.089 10.3658 170.831 13.5218 176.59C16.672 182.355 19.0774 187.76 23.0011 192.744C26.9247 197.728 30.274 202.255 34.6583 206.714C39.0425 211.173 43.1026 214.68 48.0214 218.403C52.9402 222.121 57.9101 225.924 63.4715 228.57C69.0385 231.21 75.3846 234.973 81.3269 236.325C87.2692 237.676 95.6852 242.831 99.9102 238.218C71.7964 233.622 48.1806 219.373 29.5405 197.02C10.9003 174.668 0.755693 140.901 3.93441 111.187C7.11882 81.474 18.2642 56.7727 39.4917 35.6523C60.7192 14.5319 89.5722 5.10069 119.244 3.86334C148.916 2.62599 178.764 12.9524 200.731 32.7728C222.698 52.5874 235.208 76.3593 239.797 104.79Z" fill="black" stroke="black" stroke-width="0.3"/>
<path d="M62.3794 121.895C57.5005 118.73 54.9586 124.17 54.9871 128.738C55.0155 133.305 56.5622 137.507 59.3656 140.883C62.169 144.264 65.4046 145.918 69.732 147.024C74.0594 148.136 80.1382 148.592 84.5565 147.554C88.9692 146.511 92.6711 145.564 96.0716 142.565C99.4721 139.566 101.451 136.966 102.759 132.735C104.061 128.504 102.526 123.782 100.655 120.013C98.7783 116.239 95.9124 113.718 92.6882 111.46C89.4583 109.208 86.126 106.893 82.4128 105.228C78.6938 103.569 74.8327 101.921 71.5232 99.6115C68.2194 97.3021 65.0179 95.1411 63.5167 91.104C62.0155 87.0669 63.4257 81.5588 65.9335 78.1318C68.4412 74.7049 72.2511 73.3136 76.0155 72.2758C79.7742 71.2323 85.8929 72.4526 88.6792 74.9957C91.4656 77.5445 95.4631 80.8004 95.3608 84.8317C95.2584 88.8631 95.8555 96.253 100.433 92.769C105.005 89.2793 100.757 83.0983 99.7791 79.2608C98.8011 75.4233 94.9912 72.8745 91.5054 71.0214C88.0253 69.1682 82.208 68.6379 78.1138 69.248C74.0196 69.8581 69.0439 70.8104 65.6207 73.2566C62.1975 75.697 59.5078 78.0805 58.0179 82.1689C56.5281 86.2572 56.9887 92.3299 59.3656 95.8367C61.7369 99.3492 64.6824 101.476 68.2421 103.472C71.7962 105.473 75.9018 106.807 79.3933 108.826C82.8904 110.839 86.1544 112.207 89.2479 114.91C92.3413 117.613 94.5931 120.869 95.9692 124.706C97.3454 128.544 97.425 134.491 94.9343 138.003C92.4436 141.51 89.2934 143.609 85.1309 144.709C80.9684 145.81 74.8441 145.251 71.0399 143.432C67.2356 141.613 64.5289 139.138 62.5614 135.398C60.5939 131.657 61.1341 125.807 62.3794 121.895Z" fill="black" stroke="black" stroke-width="0.3"/>
<path d="M180.089 70.5773C175.028 69.6251 170.03 69.5452 164.736 69.4369C159.442 69.3285 153.613 69.6992 148.37 69.5623C143.127 69.4255 138.652 71.5752 133.46 71.1475C128.269 70.7198 123.424 75.6749 130.617 73.9985C137.805 72.3164 135.479 78.5317 136.304 83.692C137.128 88.8524 136.724 94.4176 136.872 99.6578C137.02 104.898 136.81 110.509 136.872 115.624C136.935 120.738 136.127 126.235 135.735 131.019C135.343 135.803 134.046 140.587 133.079 144.892C132.113 149.197 130.771 152.955 128.769 156.536C126.773 160.122 122.758 162.99 119.068 163.321C115.383 163.646 110.413 162.483 107.433 159.968C104.454 157.454 98.9379 154.118 97.6357 159.529C108.485 168.789 127.842 169.291 134.99 154.791C142.144 140.296 142.502 123.413 143.127 107.07C153.232 104.63 164.429 108.861 173.834 105.36C164.366 102.783 153.113 104.744 143.127 104.79C143.241 93.9728 142.519 83.3613 141.421 72.8581C147.87 71.7861 156.053 73.0121 162.461 72.2879C168.87 71.5638 176.626 76.1995 180.089 70.5773Z" fill="black" stroke="black" stroke-width="0.3"/>
<path d="M115.265 147.555C125.927 148.798 118.887 134.617 119.814 128.738C120.741 122.859 118.483 120.721 119.245 115.623C120.007 110.526 117.869 107.737 118.676 103.079C119.484 98.4203 117.539 94.5714 119.057 90.3461C120.576 86.1209 117.403 80.9492 119.285 76.8893C121.173 72.8351 117.733 68.1937 114.554 71.575C111.381 74.962 113.979 79.6149 112.99 83.6918C112.001 87.7688 113.462 92.5642 112.99 96.8066C112.518 101.049 113.257 105.605 112.99 109.921C112.723 114.238 113.075 119.05 113.371 123.224C113.667 127.398 113.82 131.475 114.127 135.581C114.434 139.686 115.088 143.455 115.265 147.555Z" fill="black" stroke="black" stroke-width="0.3"/>
<path d="M176.109 201.724C171.219 200.96 170.883 208.515 175.535 209.131C180.186 209.747 180.317 202.38 176.109 201.724Z" fill="black" stroke="black" stroke-width="0.2"/>
<path d="M163.029 210.848C160.59 211.315 158.162 213.693 157.343 215.98C160.47 217.73 162.193 222.332 165.872 222.822C164.167 219.977 163.058 217.696 165.872 214.839C163.632 215.147 160.294 219.156 160.186 214.269C161.716 214.172 163.308 212.444 163.029 210.848Z" fill="black" stroke="black" stroke-width="0.2"/>
<path d="M239.797 104.79C242.953 99.4469 239.057 90.814 237.698 84.6558C236.339 78.5032 232.745 72.1512 230.113 66.6031C227.486 61.0493 224.602 55.6722 220.889 50.7627C217.176 45.8533 213.321 41.0921 209.232 36.7927C205.143 32.4991 200.498 28.7186 195.573 24.8298C190.649 20.941 185.912 18.1869 180.22 15.1363C174.528 12.0857 168.875 9.46846 162.472 7.27317C156.069 5.07218 148.774 3.70368 141.802 2.34089C134.831 0.9781 125.556 0.966695 118.107 1.01231C110.658 1.05793 102.225 2.358 95.3667 3.86904C88.5089 5.38009 81.6908 7.11921 75.504 9.61101C69.3114 12.1028 64.2676 14.606 58.7972 17.9474C53.3212 21.2888 48.4365 24.4706 43.7566 28.5247C39.0766 32.5789 34.6924 36.6502 30.7062 41.0978C26.7257 45.5454 23.564 50.3807 20.1578 55.6095C16.7573 60.844 13.8061 66.2324 11.1903 72.2766C8.56887 78.3151 6.85725 84.9694 4.9068 91.6351C2.95066 98.3008 2.56967 106.061 1.52336 113.331C0.471373 120.596 1.18218 130.113 2.10338 137.291C3.02458 144.47 4.3154 152.065 6.46488 158.577C8.62004 165.089 10.3658 170.831 13.5218 176.59C16.672 182.355 19.0774 187.76 23.0011 192.744C26.9247 197.728 30.274 202.255 34.6583 206.714C39.0425 211.173 43.1026 214.68 48.0214 218.403C52.9402 222.121 57.9101 225.924 63.4715 228.57C69.0385 231.21 75.3846 234.973 81.3269 236.325C87.2692 237.676 95.6852 242.831 99.9102 238.218C71.7964 233.622 48.1806 219.373 29.5405 197.02C10.9003 174.668 0.755693 140.901 3.93441 111.187C7.11882 81.474 18.2642 56.7727 39.4917 35.6523C60.7192 14.5319 89.5722 5.10069 119.244 3.86334C148.916 2.62599 178.764 12.9524 200.731 32.7728C222.698 52.5874 235.208 76.3593 239.797 104.79Z" fill="black" stroke="black"/>
<path d="M62.3794 121.895C57.5005 118.73 54.9586 124.17 54.9871 128.738C55.0155 133.305 56.5622 137.507 59.3656 140.883C62.169 144.264 65.4046 145.918 69.732 147.024C74.0594 148.136 80.1382 148.592 84.5565 147.554C88.9692 146.511 92.6711 145.564 96.0716 142.565C99.4721 139.566 101.451 136.966 102.759 132.735C104.061 128.504 102.526 123.782 100.655 120.013C98.7783 116.239 95.9124 113.718 92.6882 111.46C89.4583 109.208 86.126 106.893 82.4128 105.228C78.6938 103.569 74.8327 101.921 71.5232 99.6115C68.2194 97.3021 65.0179 95.1411 63.5167 91.104C62.0155 87.0669 63.4257 81.5588 65.9335 78.1318C68.4412 74.7049 72.2511 73.3136 76.0155 72.2758C79.7742 71.2323 85.8929 72.4526 88.6792 74.9957C91.4656 77.5445 95.4631 80.8004 95.3608 84.8317C95.2584 88.8631 95.8555 96.253 100.433 92.769C105.005 89.2793 100.757 83.0983 99.7791 79.2608C98.8011 75.4233 94.9912 72.8745 91.5054 71.0214C88.0253 69.1682 82.208 68.6379 78.1138 69.248C74.0196 69.8581 69.0439 70.8104 65.6207 73.2566C62.1975 75.697 59.5078 78.0805 58.0179 82.1689C56.5281 86.2572 56.9887 92.3299 59.3656 95.8367C61.7369 99.3492 64.6824 101.476 68.2421 103.472C71.7962 105.473 75.9018 106.807 79.3933 108.826C82.8904 110.839 86.1544 112.207 89.2479 114.91C92.3413 117.613 94.5931 120.869 95.9692 124.706C97.3454 128.544 97.425 134.491 94.9343 138.003C92.4436 141.51 89.2934 143.609 85.1309 144.709C80.9684 145.81 74.8441 145.251 71.0399 143.432C67.2356 141.613 64.5289 139.138 62.5614 135.398C60.5939 131.657 61.1341 125.807 62.3794 121.895Z" fill="black"/>
<path d="M180.089 70.5773C175.028 69.6251 170.03 69.5452 164.736 69.4369C159.442 69.3285 153.613 69.6992 148.37 69.5623C143.127 69.4255 138.652 71.5752 133.46 71.1475C128.269 70.7198 123.424 75.6749 130.617 73.9985C137.805 72.3164 135.479 78.5317 136.304 83.692C137.128 88.8524 136.724 94.4176 136.872 99.6578C137.02 104.898 136.81 110.509 136.872 115.624C136.935 120.738 136.127 126.235 135.735 131.019C135.343 135.803 134.046 140.587 133.079 144.892C132.113 149.197 130.771 152.955 128.769 156.536C126.773 160.122 122.758 162.99 119.068 163.321C115.383 163.646 110.413 162.483 107.433 159.968C104.454 157.454 98.9379 154.118 97.6357 159.529C108.485 168.789 127.842 169.291 134.99 154.791C142.144 140.296 142.502 123.413 143.127 107.07C153.232 104.63 164.429 108.861 173.834 105.36C164.366 102.783 153.113 104.744 143.127 104.79C143.241 93.9728 142.519 83.3613 141.421 72.8581C147.87 71.7861 156.053 73.0121 162.461 72.2879C168.87 71.5638 176.626 76.1995 180.089 70.5773Z" fill="black"/>
<path d="M115.265 147.555C125.927 148.798 118.887 134.617 119.814 128.738C120.741 122.859 118.483 120.721 119.245 115.623C120.007 110.526 117.869 107.737 118.676 103.079C119.484 98.4203 117.539 94.5714 119.057 90.3461C120.576 86.1209 117.403 80.9492 119.285 76.8893C121.173 72.8351 117.733 68.1937 114.554 71.575C111.381 74.962 113.979 79.6149 112.99 83.6918C112.001 87.7688 113.462 92.5642 112.99 96.8066C112.518 101.049 113.257 105.605 112.99 109.921C112.723 114.238 113.075 119.05 113.371 123.224C113.667 127.398 113.82 131.475 114.127 135.581C114.434 139.686 115.088 143.455 115.265 147.555Z" fill="black"/>
<path d="M211.933 115.053C206.912 113.132 203.773 120.185 207.241 123.749C210.716 127.313 217.329 125.243 216.482 119.615C214.679 121.497 212.103 125.79 208.669 122.318C205.228 118.851 210.301 116.553 211.933 115.053Z" fill="black"/>
<path d="M196.012 126.457C196.245 128.333 203.581 135.352 204.337 133.699C205.099 132.045 197.303 125.032 196.012 126.457Z" fill="black"/>
<path d="M224.443 128.738C223.362 124.838 218.961 130.911 218.188 132.73C220.627 134.138 222.293 137.251 224.585 138.854C226.882 140.456 230.305 136.026 230.698 133.87C228.543 133.939 227.61 136.356 225.58 137.291C221.878 134.686 226.711 133.682 226.717 131.019C222.89 135.946 218.534 130.991 224.443 128.738Z" fill="black"/>
<path d="M190.894 134.44C185.299 133.522 182.444 140.827 186.783 144.265C191.122 147.698 195.176 143.438 197.149 140.142C195.597 139.373 194.738 137.531 193.169 136.721C192.754 137.879 191.355 138.409 190.894 139.572C192.066 140.752 193.174 138.386 194.306 139.572C194.147 143.301 189.484 145.297 187.096 141.671C184.707 138.044 190.24 136.556 190.894 134.44Z" fill="black"/>
<path d="M205.109 144.134C206.548 145.251 214.366 150.748 216.033 148.826C217.704 146.899 212.587 138.962 211.364 137.861C209.937 141.02 214.173 143.632 213.639 146.985C210.852 146.198 207.867 142.68 205.109 144.134Z" fill="black"/>
<path d="M177.814 145.844C175.295 144.806 172.622 148.951 171.559 150.975C174.493 152.76 176.296 156.66 179.52 157.818C180.589 155.343 184.223 155.03 184.069 152.116C181.442 151.62 180.777 155.44 178.383 155.537C175.835 152.703 179.725 151.882 180.089 149.265C177.78 148.455 176.609 153.559 174.846 151.101C173.089 148.649 177.337 147.891 177.814 145.844Z" fill="black"/>
<path d="M199.424 150.406C196.364 150.029 202.159 158.349 204.712 158.754C207.271 159.164 201.425 150.651 199.424 150.406Z" fill="black"/>
<path d="M166.443 156.108C163.651 156.866 159.107 159.888 159.619 162.95C161.08 162.602 161.939 160.892 163.599 161.24C164.822 163.258 166.966 166.702 169.854 166.942C169.223 162.899 161.757 160.436 166.443 156.108Z" fill="black"/>
<path d="M192.03 157.248C189.267 158.799 185.895 161.063 185.207 164.091C187.032 164.724 187.549 162.249 189.187 162.38C190.956 164.644 193.179 166.834 195.442 168.653C196.778 165.648 192.326 163.39 190.324 161.24C190.137 159.575 192.679 159.073 192.03 157.248Z" fill="black"/>
<path d="M215.913 160.099C212.535 161.736 215.714 165.528 215.913 168.082C212.922 166.577 206.098 166.189 209.231 169.65C212.365 173.112 212.962 174.543 216.482 174.925C216.027 172.621 212.888 171.737 212.501 169.223C214.093 170.198 215.992 170.095 217.619 170.933C218.824 169.114 217.198 167.13 217.05 165.231C219.279 165.511 220.189 168.282 222.168 169.223C223.379 165.357 217.528 163.338 215.913 160.099Z" fill="black"/>
<path d="M160.754 175.495C158.207 173.06 153.242 169.946 149.381 170.363C150.763 173.915 151.463 179.851 155.068 181.197C154.09 178.688 154.761 176.698 156.774 174.924C158.218 174.793 159.418 176.835 160.754 175.495ZM153.362 176.065C152.407 175.055 152.236 173.835 151.656 172.644C153.982 172.102 156.444 175.021 153.362 176.065Z" fill="black"/>
<path d="M182.931 176.065C190.813 178.523 181.97 172.017 177.939 171.378C173.913 170.745 178.16 180.815 180.657 182.337C180.964 180.057 180.543 177.804 182.931 176.065ZM181.794 174.925C181.385 178.625 177.802 176.407 177.814 173.784C179.36 173.425 180.321 174.965 181.794 174.925Z" fill="black"/>
<path d="M201.698 174.355C199.293 174.058 201.664 178.523 204.103 180.496C206.543 182.469 201.112 186.694 199.566 183.336C198.013 179.977 193.652 179.15 194.732 181.34C195.812 183.529 198.906 185.565 201.124 186.894C203.347 188.222 208.215 182.554 206.685 180.758C205.155 178.962 203.893 174.623 201.698 174.355Z" fill="black"/>
<path d="M148.246 186.328C143.765 187.429 144.425 180.929 140.859 180.632C137.294 180.336 134.001 184.686 136.447 186.756C138.892 188.832 140.404 191.831 143.128 192.601C143.384 191.152 142.844 189.738 141.422 189.179C141.729 184.931 147.95 190.565 148.246 186.328ZM137.442 184.048C138.505 182.269 143.248 181.767 142.366 185.006C141.485 188.244 137.425 186.477 137.442 184.048Z" fill="black"/>
<path d="M173.834 189.18C172.873 185.673 168.881 182.485 165.873 180.626C166.271 184.304 170.536 188.033 173.834 189.18Z" fill="black"/>
<path d="M159.618 187.469C157.287 189.442 154.569 191.096 152.794 193.741C154.233 194.916 155.541 193.342 156.775 192.601C158.703 194.106 159.942 197.339 162.331 198.423C164.719 199.506 163.445 194.939 160.613 193.884C157.781 192.823 159.675 189.134 159.618 187.469Z" fill="black"/>
<path d="M195.443 194.882C192.31 193.736 192.14 191.113 189.882 188.484C187.63 185.856 183.434 190.611 181.796 191.461C183.803 194.483 186.749 198.491 190.326 199.444C190.508 198.001 187.477 195.27 189.905 194.54C192.333 193.81 193.22 196.359 195.443 194.882ZM188.62 189.75C190.627 191.022 188.301 195.207 185.919 193.593C183.542 191.98 186.595 188.467 188.62 189.75Z" fill="black"/>
<path d="M128.912 190.32C126.893 192.761 122.56 194.34 122.657 197.733C123.589 196.957 124.943 196.598 125.5 195.452C128.389 196.712 130.18 202.215 133.461 201.154C132.096 198.959 131.374 197.602 129.054 195.88C126.734 194.158 129.754 192.236 128.912 190.32Z" fill="black"/>
<path d="M153.363 208.567C154.239 205.265 148.376 199.865 145.402 200.014C147.358 203.281 150.423 206.046 153.363 208.567Z" fill="black"/>
<path d="M117.538 203.435C115.269 202.22 110.805 205.978 112.562 208.994C114.314 212.011 118.658 208.783 120.95 208.567C122.28 212.381 116.548 211.275 116.969 214.269C119.642 214.326 124.219 211.999 122.826 208.396C121.439 204.786 116.89 208.116 114.126 207.996C113.637 205.55 116.605 205.037 117.538 203.435Z" fill="black"/>
<path d="M145.971 215.409C145.136 211.885 141.047 209.16 138.579 206.856C137.339 209.49 141.013 210.836 141.991 213.128C139.33 213.037 131.09 210.847 133.319 214.411C135.548 217.975 137.169 219.076 140.285 221.111C141.735 218.334 136.964 217.473 136.873 214.839C140.029 214.588 142.781 215.837 145.971 215.409Z" fill="black"/>
<path d="M132.891 227.954C130.56 225.194 128.223 220.86 124.362 219.971C125.562 223.044 129.747 228.53 132.891 227.954Z" fill="black"/>
</svg>
