<svg width="16" height="16" viewBox="0 0 16 16" fill="none" xmlns="http://www.w3.org/2000/svg">
<g clip-path="url(#clip0_58_22937)">
<path d="M7.99984 0.615234C3.62864 0.615234 0 3.55763 0 7.28915C0 9.50387 1.28032 11.4384 3.2336 12.6469C3.10144 13.3701 2.46256 13.9951 1.85456 14.6389C1.79221 14.7051 1.75179 14.7889 1.73882 14.8789C1.72585 14.9689 1.74095 15.0607 1.78206 15.1418C1.82318 15.2229 1.88831 15.2893 1.96858 15.332C2.04884 15.3748 2.14033 15.3917 2.23056 15.3805C3.66336 15.2015 4.98224 14.4295 5.9592 13.7429C6.62941 13.8902 7.31364 13.9642 7.99984 13.9637C12.371 13.9637 16 11.0208 16 7.28915C16 3.55747 12.371 0.615234 7.99984 0.615234ZM7.99984 1.49891C11.9771 1.49891 15.1162 4.13683 15.1162 7.28931C15.1162 10.4418 11.9771 13.0799 8 13.0799C7.62579 13.0798 7.25196 13.0559 6.8808 13.0082C6.84069 13.0029 6.80069 12.9972 6.7608 12.9912C6.70368 12.9829 6.64608 12.9751 6.58928 12.9656C6.54683 12.9584 6.50448 12.9508 6.46224 12.9429C6.41403 12.9344 6.36592 12.9255 6.31792 12.9164C6.2656 12.906 6.2136 12.8944 6.1616 12.8832C6.11904 12.874 6.07616 12.8652 6.03392 12.8552C5.94411 12.8343 5.85466 12.8118 5.7656 12.7879C5.61715 12.8942 5.46683 12.9979 5.31472 13.0989L5.312 13.1007C5.18256 13.1859 5.05182 13.2691 4.91984 13.3503C4.48304 13.6216 4.01056 13.8842 3.51744 14.0927C3.73792 13.7906 3.9264 13.458 4.03776 13.0864C4.05419 13.0305 4.0688 12.9737 4.0816 12.916C4.08629 12.8954 4.09077 12.8748 4.09504 12.8541C4.10475 12.8056 4.11301 12.7565 4.11984 12.7068C4.12496 12.67 4.12816 12.6324 4.13168 12.5948C4.13488 12.5581 4.13904 12.522 4.14064 12.4844C4.14416 12.4036 4.14432 12.3212 4.1392 12.2365C4.1377 12.2055 4.13298 12.1747 4.12512 12.1447L4.12432 12.1444L4.11952 12.1416C4.01349 12.0848 3.90887 12.0254 3.80576 11.9634C3.76885 11.9412 3.73227 11.9186 3.696 11.8957C1.9808 10.8303 0.884 9.15059 0.884 7.28931C0.884 4.13683 4.02256 1.49891 7.99984 1.49891ZM7.67232 1.84531C7.61696 1.84579 7.56128 1.84851 7.5056 1.85043C7.51312 1.86963 7.51392 1.89283 7.49808 1.92675C7.716 1.97283 7.92784 1.83667 8.15024 1.89795C8.348 1.94035 8.5816 2.00003 8.70848 2.14835C8.7872 2.18563 8.41984 2.02915 8.49728 2.19779C8.58544 2.37811 8.8304 2.35699 8.98736 2.26675C9.196 2.23795 9.02144 2.44899 9.16304 2.50227C9.0256 2.51571 8.81504 2.61779 8.63104 2.62787C8.46464 2.62451 8.49568 2.77411 8.64416 2.76563C8.812 2.80531 9.05376 2.68595 9.11264 2.90275C9.13897 2.90699 9.16329 2.91944 9.18212 2.93834C9.20094 2.95723 9.21331 2.9816 9.21744 3.00795C9.22158 3.03429 9.21728 3.06128 9.20515 3.08503C9.19302 3.10878 9.17369 3.12809 9.14992 3.14019C9.2144 3.22819 9.33808 3.30291 9.27184 3.39363C9.18704 3.55475 8.98992 3.52611 8.80624 3.55379C8.63504 3.56611 8.44624 3.43059 8.28656 3.55219C8.09936 3.66195 8.08736 3.90019 7.89568 4.00179C7.75648 4.21699 7.8464 4.32819 7.91984 4.39379C8.04192 4.43571 8.3216 4.41107 8.46224 4.30547C8.47632 4.21795 8.44096 4.11347 8.42816 4.05203C8.46448 4.08083 8.47504 4.10051 8.4744 4.11283C8.47824 4.15395 8.54624 4.18483 8.55344 4.19219C8.64304 4.24435 8.54352 4.40483 8.53856 4.44339C8.3616 4.42739 8.17312 4.45379 7.9904 4.46627C8.00608 4.54739 7.796 4.62051 7.8048 4.62515C7.6136 4.59075 7.52496 4.66435 7.3976 4.75315C7.38864 4.75667 7.28608 4.78515 7.28608 4.78515C7.29776 4.79795 7.25184 4.85635 7.27088 4.85427C7.51296 4.82819 7.53568 4.96099 7.52736 5.08211C7.42528 5.22403 6.99072 5.00211 7.07136 5.30419C7.03552 5.45059 6.94864 5.68931 7.21488 5.66531H7.2152C7.2152 5.66531 7.35568 5.63283 7.36576 5.63283C7.376 5.63283 7.68784 5.51475 7.68784 5.51475L7.6968 5.51411C7.69904 5.49539 7.7112 5.47011 7.7384 5.43411C7.81056 5.33251 7.9496 5.24099 8.08912 5.24131C8.02192 5.31331 8.15888 5.46531 8.12848 5.51987L8.25856 5.52995C8.2904 5.50355 8.29296 5.48451 8.31248 5.45891C8.33296 5.43635 8.26256 5.31219 8.28416 5.30355C8.2872 5.30227 8.29216 5.30275 8.29968 5.30691C8.39056 5.34851 8.66016 5.50115 8.42048 5.51715C8.42528 5.68291 8.4496 5.61235 8.59104 5.65283C8.67136 5.64899 8.70368 5.45523 8.7888 5.44163C8.80244 5.4397 8.81635 5.44182 8.8288 5.44771C8.86208 5.48755 8.9016 5.53427 8.94528 5.57827C9.00448 5.62051 9.09888 5.61075 9.17104 5.55379C9.20864 5.50083 9.13504 5.39027 9.14544 5.39363C9.17648 5.43491 9.25504 5.52835 9.26256 5.56723C9.38208 5.65827 9.53568 5.63619 9.6496 5.69219C9.7528 5.66323 9.89552 5.69187 9.77904 5.79987C9.6016 5.82451 9.40368 5.85363 9.22768 5.79507C9.08112 5.72851 8.9048 5.76355 8.8568 5.90899C8.72016 5.85043 8.55488 5.79699 8.41248 5.73219C7.98848 5.51795 7.57264 5.59523 7.18048 5.69811L7.21488 5.66531C7.12496 5.76371 6.96912 5.83779 6.94016 5.99331C6.81504 6.12099 6.62256 6.17859 6.54032 6.35539C6.3608 6.49571 6.48816 6.69091 6.4368 6.86355C6.34976 6.93827 6.28832 7.01171 6.40128 7.10291C6.44448 7.26003 6.64688 7.62323 6.70256 7.78195C6.87056 7.89683 7.06048 8.07059 7.28944 7.96451C7.50224 7.98883 7.69824 7.92307 7.88816 7.87555C8.0056 7.96291 8.12848 8.00515 8.27344 8.02323C8.32912 8.17555 8.16464 8.38099 8.388 8.48627C8.52016 8.63731 8.6056 8.85635 8.54416 9.04099C8.40544 9.19043 8.38512 9.40595 8.51712 9.56515C8.63856 9.74739 8.55232 9.97587 8.70496 10.1533C8.80416 10.2624 8.66912 10.5634 8.90656 10.5365C9.08896 10.4525 9.31696 10.558 9.48352 10.4306C9.6312 10.321 9.7992 10.2162 9.87424 10.0557C9.97392 9.91555 10.1907 9.86451 10.1328 9.66371C10.1285 9.43075 10.5123 9.49379 10.5506 9.26851C10.6586 9.04451 10.4776 8.81859 10.5261 8.59283C10.6286 8.40083 10.7981 7.94963 10.9808 7.81299C11.1856 7.61875 11.2874 7.34915 11.2829 7.08499C11.1472 6.93811 10.9101 7.22851 10.8082 7.12627L10.4658 6.82323L10.4664 6.82291C10.4011 6.77219 10.315 6.66483 10.3062 6.62195C10.273 6.55238 10.2326 6.48643 10.1858 6.42515C10.1282 6.34947 9.94416 6.12915 9.97296 6.15731C10.055 6.24371 10.1461 6.34499 10.2378 6.44659C10.3296 6.54819 10.408 6.69139 10.5374 6.79379C10.84 7.08499 10.9715 7.05891 11.2654 6.86675C11.3902 6.74723 11.5782 6.67267 11.6056 6.49283C11.6786 6.35747 11.588 6.22323 11.4773 6.16483C11.3541 6.14483 11.2293 6.17347 11.0917 6.14483C11.0242 6.06483 10.9104 6.00531 10.8323 5.95011C10.8288 5.94243 10.8174 5.93139 10.803 5.91075C10.7934 5.90195 10.7944 5.90019 10.7982 5.90035C10.8019 5.90067 10.8083 5.90275 10.8094 5.90115C10.827 5.91395 10.8374 5.92499 10.8427 5.92867L11.0456 6.04547C11.1592 6.13523 11.3043 6.11587 11.451 6.13027C11.6542 6.14147 11.9197 6.02467 12.059 6.22179C12.1259 6.38387 12.4157 6.35971 12.4086 6.57251C12.5229 6.79459 12.6667 7.00835 12.7518 7.23923C12.813 7.35635 12.9731 7.30723 12.9734 7.44227C13.1555 7.59171 13.2475 7.29667 13.1198 7.19123C13.0174 7.00259 12.9238 6.78291 12.9925 6.57523C13.1045 6.42131 13.0456 6.19571 13.1992 6.06995C13.4382 6.08787 13.4275 6.35571 13.5501 6.48483C13.8013 6.49731 13.8054 6.77507 13.8534 6.94403C13.7998 7.11683 14.0288 7.28339 14.0046 7.42051C13.888 7.26131 13.6789 7.43923 13.8259 7.56243C13.9784 7.73747 14.0114 7.96243 14.0738 8.17107C14.104 8.33923 14.1957 8.49331 14.2366 8.65603C14.2589 8.77123 14.3486 8.84435 14.4421 8.91507C14.4573 8.87699 14.4736 8.83955 14.4877 8.80099C14.509 8.74291 14.5274 8.68339 14.5464 8.62435C14.5214 8.60803 14.4898 8.60051 14.4459 8.60803C14.3248 8.43891 14.481 8.21427 14.3362 8.05091C14.2888 7.88531 14.3618 7.72323 14.2957 7.56195C14.2957 7.34755 14.1222 7.19587 14.0397 7.00787C13.9819 6.92467 13.9707 6.63251 14.0749 6.84179C14.1357 6.91379 14.2002 7.13683 14.2712 7.10563C14.357 6.89075 14.4269 6.65091 14.3296 6.42931C14.327 6.26403 14.0592 6.11379 14.0752 6.00499C14.3373 5.94003 13.9582 5.66531 14.0864 5.51059C14.1288 5.38899 14.0053 5.17283 14.2005 5.25411C14.216 5.22579 14.22 5.19747 14.2202 5.16931C14.1789 5.09029 14.1354 5.0124 14.0899 4.93571C14.0803 4.91971 14.0698 4.90419 14.06 4.88819L14.0595 4.88787C14.0267 4.85315 13.9939 4.82003 13.967 4.78979C13.8227 4.69795 13.821 4.53155 13.711 4.41619C13.5898 4.27635 13.4542 4.14227 13.2797 4.05507C13.1805 3.99107 13.0275 3.85843 13.057 3.76195C13.105 3.79715 13.1752 3.83859 13.2307 3.85043L13.2134 3.83283C11.8566 2.51155 9.82032 1.80035 7.9648 1.84915C7.86724 1.84559 7.76962 1.84425 7.672 1.84515M7.0648 1.87891C4.57792 2.12867 2.0528 3.74627 1.4 6.16835V6.16867C1.43056 6.29219 1.49776 6.44131 1.67824 6.49987C1.79056 6.54867 1.74608 6.70499 1.87296 6.77459C2.04 6.91235 1.92992 7.11443 2.07376 7.25891C2.12016 7.35907 2.17648 7.43299 2.29728 7.37011C2.5 7.44115 2.30896 7.71347 2.22512 7.83571C2.0928 7.99571 2.2184 8.19411 2.14464 8.36499C2.20096 8.58547 2.39584 8.75091 2.4768 8.96371C2.5344 9.17795 2.74576 9.27235 2.93072 9.38291C3.08544 9.52435 3.07952 9.73427 3.15232 9.91027C3.2128 10.0916 3.25792 10.2776 3.36336 10.4434C3.46 10.637 3.48576 10.854 3.63184 11.0272C3.7456 11.1804 3.86 11.3324 3.95744 11.4943C4.05296 11.6061 4.18432 11.6991 4.26016 11.8226L4.32448 11.8562C4.32512 11.8564 4.32565 11.8567 4.32608 11.8572C4.51584 11.9232 4.76 12.0364 4.91616 11.884C4.9856 11.6898 4.70832 11.773 4.62016 11.65C4.43152 11.5607 4.57536 11.3108 4.33472 11.2744C4.39376 11.1978 4.2616 11.1204 4.31168 11.0106C4.27776 10.9154 4.21072 10.777 4.36608 10.7424C4.45744 10.6263 4.29872 10.4781 4.46048 10.3972C4.51136 10.209 4.59776 10.021 4.572 9.82435C4.51744 9.57683 4.90672 9.65203 4.94592 9.44147C5.032 9.25539 4.97472 9.05459 5.00672 8.86291C5.10144 8.69059 5.33744 8.48803 5.16448 8.28915C4.98112 8.14659 4.74448 8.09651 4.5288 8.03011C4.38832 7.93139 4.10448 7.97683 4.15072 7.76675C4.11216 7.55923 3.89872 7.47859 3.69984 7.42595C3.51424 7.37203 3.5656 7.16435 3.47104 7.07555C3.00176 6.97075 3.0248 7.00227 2.94032 6.91507C2.81088 6.86435 2.74032 6.91027 2.62624 6.95891C2.58256 7.04579 2.4808 7.08851 2.37136 7.09491C2.1064 7.14899 2.2616 6.80867 2.31616 6.69555C2.37488 6.55347 2.1368 6.48371 2.116 6.46931C2.19088 6.30819 2.28608 6.01875 2.54608 6.14131C2.63472 6.18035 2.61872 6.25491 2.59248 6.30819C2.83456 6.34451 2.8176 6.51315 2.96736 6.61683C3.05888 6.50611 3.41792 6.73971 3.33152 6.50179C3.16992 6.38131 2.95344 6.34099 2.82336 6.17587C2.76064 6.00099 3.07776 5.87011 2.95216 5.68323C2.89744 5.58515 2.84848 5.74691 2.89552 5.60899C2.91408 5.39619 3.13504 5.29091 3.33872 5.24483C3.50192 5.12579 3.592 4.90483 3.83664 4.89811C4.01568 4.91459 4.04208 4.63619 4.20144 4.80531C4.34384 4.79939 4.56624 4.79603 4.66208 4.67827C4.704 4.68643 4.96128 4.87475 5.03696 4.69203C5.1032 4.58867 4.98704 4.44035 5.14224 4.37475C5.19568 4.18675 5.12432 3.97939 5.288 3.81827C5.4032 3.66019 5.61792 3.61667 5.7984 3.54307C5.89056 3.47875 5.78 3.39667 5.90464 3.33875C6.01504 3.22163 6.05504 3.01795 6.2488 3.00243C6.3656 2.93555 6.30448 3.03011 6.33856 3.06291C6.46528 3.23251 6.12 3.29571 6.05712 3.43251C5.8864 3.56883 5.69152 3.75075 5.73584 3.97299C5.844 4.23459 6.09536 3.96659 6.22384 3.86931C6.49104 3.78291 6.7736 3.74451 7.04384 3.66883C7.15552 3.61571 7.09424 3.50035 7.2224 3.44067C7.336 3.32867 7.35264 3.15907 7.52208 3.11779C7.56144 2.90755 7.26992 2.86451 7.09648 2.86067C7.05072 2.66979 6.8096 2.68899 6.65072 2.61859C6.79632 2.56051 6.47984 2.56499 6.58064 2.49219C6.48128 2.48227 6.37744 2.34611 6.28192 2.43779C6.24512 2.38963 5.888 2.43747 6.032 2.26787C6.3472 2.07907 6.77824 2.12547 7.06144 1.88499C7.06336 1.88323 7.06336 1.88099 7.06496 1.87907M8.34496 2.93107C8.32416 2.93011 8.30592 2.93267 8.29472 2.94003C8.22272 2.98195 8.18112 3.16707 8.31808 3.08019C8.39296 3.11683 8.56864 3.12211 8.45344 3.01971C8.48976 2.97043 8.40752 2.93395 8.34512 2.93107M8.86 2.96179C8.84687 2.96297 8.83389 2.96549 8.82128 2.96931C8.69952 3.13187 8.84368 3.35043 9.00912 3.43603C9.13344 3.50787 9.34032 3.33747 9.13344 3.30083C8.94992 3.27683 9.03328 2.94819 8.85984 2.96163M8.04192 3.04035C8.02777 3.03944 8.01356 3.03998 7.99952 3.04195L7.97632 3.04099C7.7456 3.06179 7.73952 3.32723 7.97696 3.34483C8.21024 3.38611 8.24016 3.05555 8.04224 3.04035H8.04192ZM6.08832 3.05059C6.09024 3.04963 6.09344 3.05059 6.09696 3.05587C6.08352 3.07635 6.08208 3.05411 6.08832 3.05059ZM5.35008 3.27507C5.43008 3.28419 5.42768 3.36131 5.32256 3.31123C5.28 3.31907 5.23648 3.28627 5.31072 3.27603C5.32565 3.27411 5.33877 3.27379 5.35008 3.27507ZM4.88608 3.28051C4.8996 3.27868 4.91337 3.28033 4.92608 3.28531C4.87008 3.40723 4.97504 3.55203 4.7864 3.61891C4.67728 3.67539 4.4832 3.92179 4.44416 3.68483C4.43136 3.48195 4.61936 3.30051 4.84576 3.28483C4.85904 3.28467 4.87248 3.28163 4.88608 3.28051ZM5.24688 3.69939C5.10368 3.70771 5.2448 3.80019 5.24688 3.69939V3.69939ZM6.84912 3.76659C6.83702 3.7674 6.82519 3.7705 6.81424 3.77571C6.78 3.87331 6.51824 3.81491 6.68512 3.91811C6.78256 4.07539 7.07552 4.07891 7.20448 3.96035C7.268 3.81219 7.07536 3.74515 6.95328 3.78771C6.92048 3.77795 6.88448 3.76403 6.84928 3.76675M7.47344 4.25571C7.38448 4.25859 7.30896 4.31251 7.31472 4.41795C7.20992 4.48403 6.984 4.65731 7.14624 4.74691C7.34896 4.72499 7.47744 4.66083 7.65952 4.59715L7.68368 4.51283C7.63312 4.45427 7.59728 4.38371 7.63376 4.30579C7.58725 4.27199 7.53092 4.25439 7.47344 4.25571ZM4.596 4.50019C4.60016 4.50243 4.604 4.50659 4.6088 4.50771C4.67696 4.60451 4.39648 4.56451 4.5816 4.50115C4.5872 4.49731 4.59168 4.49779 4.596 4.50019ZM10.2875 4.89203C10.3291 4.96403 10.5744 5.04595 10.512 5.09571C10.4371 5.05427 10.2598 4.92931 10.2875 4.89203ZM9.3696 4.98003C9.44576 5.17011 9.68848 4.97619 9.82 5.07283C9.89936 5.09475 9.97104 5.18435 9.83072 5.14563C9.67872 5.01203 9.34752 5.32195 9.31536 5.10643C9.32464 5.06163 9.3496 5.02131 9.3696 4.98003ZM10.5821 5.19955C10.5896 5.19892 10.5972 5.19962 10.6045 5.20163C10.7658 5.21251 10.7181 5.40115 10.589 5.28723C10.5645 5.26739 10.5397 5.20371 10.5821 5.19955ZM2.32704 5.32387L2.34528 5.33283C2.36928 5.55635 2.68624 5.29187 2.68192 5.52035C2.66064 5.65187 2.5456 5.82371 2.70064 5.93347C2.81792 6.01811 2.64528 6.03427 2.59504 5.95459C2.45632 5.88499 2.34592 6.08371 2.1848 5.99571C2.01632 5.93955 1.97472 6.30995 1.83792 6.10339C1.8048 5.95843 1.91792 5.81987 1.9728 5.68531C2.05728 5.54963 2.1368 5.39171 2.30496 5.32531L2.32704 5.32387ZM14.409 5.57763C14.2853 5.67411 14.4749 5.88563 14.4874 6.01507C14.5709 6.12595 14.5949 6.21859 14.6458 6.32387C14.6405 6.30067 14.6366 6.27667 14.6309 6.25347C14.574 6.02293 14.4998 5.79701 14.409 5.57763ZM9.17968 5.60515C8.91312 5.66547 9.19648 5.70611 9.304 5.70643C9.35056 5.62275 9.26304 5.63251 9.17968 5.60515ZM2.6016 6.36963C2.47632 6.37139 2.63488 6.56691 2.75136 6.54083C2.82896 6.52259 2.77568 6.49011 2.73856 6.42163C2.72049 6.40328 2.69826 6.38956 2.67376 6.38163C2.65041 6.3742 2.6261 6.37016 2.6016 6.36963ZM14.6806 6.49075C14.6291 6.63347 14.6445 6.81651 14.7098 6.93507C14.7207 6.93437 14.7314 6.93143 14.7411 6.92643C14.7387 6.89683 14.7379 6.86755 14.7349 6.83779C14.721 6.72149 14.7029 6.60573 14.6806 6.49075ZM11.3046 6.84563C11.2954 6.84643 11.2837 6.87011 11.311 6.85491C11.31 6.84819 11.3078 6.8451 11.3046 6.84563ZM14.7483 7.03443C14.5762 7.16803 14.7074 7.40883 14.5667 7.56195C14.4259 7.67299 14.4147 7.84291 14.4432 7.99763C14.4843 8.12835 14.4387 8.37411 14.6109 8.40131C14.6227 8.35683 14.6358 8.31267 14.6461 8.26771C14.7373 7.87379 14.7726 7.46131 14.7483 7.03443ZM14.3205 8.03923C14.3296 8.03811 14.3405 8.04515 14.3253 8.06323C14.3038 8.04915 14.3112 8.04019 14.3205 8.03923ZM11.0656 9.02531C11.0368 9.07235 10.9832 9.17683 10.912 9.11011C11.0042 9.32003 10.5429 9.27555 10.6323 9.50803C10.5859 9.67363 10.3965 9.89107 10.5778 10.038C10.8018 10.1152 10.8818 9.89459 10.9526 9.75587C11.0315 9.61459 11.1107 9.47379 11.1957 9.33539C11.1774 9.23843 11.2267 9.03299 11.0656 9.02531ZM10.96 11.4175C10.7445 11.4488 10.8624 11.7426 11.0355 11.5901C11.0579 11.5336 11.0434 11.4252 10.96 11.4175ZM4.88784 11.4559C4.6424 11.4612 4.87728 11.81 4.9864 11.5874C5.01008 11.4485 4.95696 11.4943 4.88768 11.4557M9.65632 11.9597C9.43296 11.9482 9.0928 12.052 8.94992 12.0343C8.79312 12.0183 8.67968 11.9652 8.53296 12.0336C8.35696 12.0236 8.19248 11.9612 8.01536 11.9615C7.99008 11.9614 7.96453 11.9627 7.93872 11.9655C7.7376 12.0135 7.53072 12.0109 7.32832 12.045C7.17376 12.1154 7.20832 12.3495 7.01456 12.3743C6.99488 12.5093 6.86128 12.5327 6.75696 12.4996C6.72832 12.5279 6.7448 12.572 6.756 12.6068C7.47152 12.7092 8.22256 12.7328 8.98992 12.6812C9.47552 12.6394 9.96704 12.5365 10.4483 12.3816C10.2322 12.402 10.0605 12.3733 9.9688 12.2704C9.99728 12.1296 9.75856 12.1509 9.82896 12.0184C9.79216 11.98 9.73088 11.9636 9.65632 11.9597ZM5.58064 12.1229C5.52288 12.1952 5.51824 12.2701 5.53776 12.3426C5.56832 12.3517 5.59824 12.3618 5.62896 12.3704C5.68592 12.3868 5.744 12.401 5.8016 12.416C5.7528 12.3847 5.72 12.3426 5.72704 12.2736C5.70512 12.1061 5.65824 12.1536 5.58064 12.1229ZM6.29424 12.5108C6.2824 12.5124 6.26784 12.5178 6.25456 12.5218L6.26176 12.5234C6.31136 12.5335 6.3616 12.5416 6.41168 12.5506C6.36848 12.5178 6.33328 12.5055 6.29424 12.5108Z" fill="#F94B65"/>
</g>
<defs>
<clipPath id="clip0_58_22937">
<rect width="16" height="16" fill="white"/>
</clipPath>
</defs>
</svg>
